<?xml version="1.0" standalone="no"?>
<!DOCTYPE svg PUBLIC "-//W3C//DTD SVG 20010904//EN"
 "http://www.w3.org/TR/2001/REC-SVG-20010904/DTD/svg10.dtd">
<svg version="1.0" xmlns="http://www.w3.org/2000/svg"
 width="1080.000000pt" height="1080.000000pt" viewBox="0 0 1080.000000 1080.000000"
 preserveAspectRatio="xMidYMid meet">

<g transform="translate(0.000000,1080.000000) scale(0.100000,-0.100000)"
fill="#000000" stroke="none">
<path d="M0 7146 l0 -3654 43 1 c37 2 43 5 39 19 -4 18 13 48 28 48 5 0 6 -10
2 -22 -5 -19 -2 -21 27 -15 28 6 30 5 22 -11 -12 -23 -44 -40 -106 -55 l-50
-12 -3 -264 c-1 -169 2 -282 9 -315 6 -28 13 -80 14 -116 l3 -65 -8 58 c-4 32
-10 61 -14 64 -3 4 -6 -627 -6 -1400 l0 -1407 5400 0 5400 0 0 5400 0 5400
-2872 -1 c-1580 0 -2868 -3 -2861 -5 12 -6 -19 -68 -41 -81 -7 -4 -6 -1 2 9
10 13 10 17 -4 22 -19 7 -17 8 -33 -22 -7 -13 -17 -20 -24 -16 -7 4 -9 4 -5
-1 4 -4 3 -14 -3 -21 -8 -10 -16 -10 -34 -2 -14 6 -22 15 -19 19 3 5 0 9 -6 9
-6 0 -9 4 -5 10 4 6 15 6 30 0 18 -7 24 -6 22 2 -3 19 65 51 75 35 6 -9 8 -9
8 0 0 7 3 12 8 10 7 -2 12 6 12 23 0 7 -848 10 -2525 10 l-2525 0 0 -3654z
m5076 3578 c-5 -13 -4 -14 7 -5 8 6 25 10 38 10 13 -1 37 2 53 6 40 11 26 -10
-22 -31 -20 -10 -45 -24 -54 -32 -22 -18 -68 -19 -79 -1 -5 8 -9 10 -9 6 0 -4
-6 -2 -14 5 -20 18 0 44 21 26 11 -9 19 -7 36 10 26 26 31 28 23 6z m-3 -106
c-5 -24 -3 -29 7 -23 9 6 10 2 5 -15 -6 -19 -4 -22 9 -17 9 4 16 2 16 -4 0 -6
5 -7 12 -3 7 4 8 3 4 -5 -4 -6 -11 -9 -15 -7 -4 3 -12 -3 -18 -12 -7 -13 -7
-21 3 -30 12 -11 16 -8 26 13 11 25 28 34 28 15 0 -14 27 -13 32 2 3 7 12 9
22 5 24 -9 17 -49 -10 -61 -15 -7 -21 -18 -20 -40 1 -35 21 -65 29 -43 3 7 9
2 14 -13 10 -24 10 -24 28 13 9 20 21 37 26 37 5 0 14 12 20 28 10 25 12 26
19 7 8 -20 9 -20 9 1 1 12 8 21 16 21 10 0 14 -6 10 -15 -6 -17 3 -52 14 -52
5 0 7 11 6 24 -2 14 2 32 9 42 11 14 12 11 10 -20 -2 -20 1 -46 6 -59 7 -19 9
-16 9 17 1 29 4 37 16 32 19 -7 37 25 25 44 -5 8 -7 17 -4 21 6 10 44 -1 44
-13 0 -6 6 -5 15 2 20 17 65 4 65 -18 0 -9 3 -28 7 -41 4 -17 3 -22 -5 -17 -7
4 -12 1 -12 -10 0 -14 3 -14 15 -4 18 15 20 13 29 -17 6 -20 4 -23 -18 -23
-19 0 -24 -4 -21 -20 2 -11 0 -20 -6 -20 -5 0 -9 -4 -9 -10 0 -5 9 -10 20 -10
11 0 20 7 20 15 0 12 5 13 18 7 9 -5 23 -7 30 -5 6 3 12 0 12 -7 0 -6 -4 -9
-9 -5 -5 3 -11 -9 -13 -27 -3 -31 -4 -31 -21 -14 -26 26 -48 5 -23 -22 16 -18
16 -19 -6 -18 -13 1 -26 -3 -30 -9 -4 -5 -6 5 -4 22 2 18 -1 30 -5 27 -5 -3
-9 0 -9 5 0 6 6 11 13 12 10 0 10 2 0 6 -7 2 -13 21 -13 42 0 20 -6 43 -12 50
-11 10 -9 11 7 5 l20 -7 -20 16 c-20 16 -20 16 1 17 24 0 37 30 23 51 -6 10
-9 6 -9 -13 0 -19 -5 -28 -16 -28 -8 0 -13 4 -10 8 6 10 -11 38 -19 30 -3 -3
0 -43 6 -89 7 -46 11 -108 10 -138 -1 -30 3 -57 9 -61 6 -4 12 -18 12 -31 3
-44 48 -81 48 -39 0 11 5 20 10 20 6 0 10 -5 10 -11 0 -5 4 -7 10 -4 6 4 7 -6
3 -27 -3 -18 -10 -34 -15 -36 -4 -2 -8 -11 -8 -19 0 -10 6 -13 18 -8 30 12 34
10 42 -12 7 -17 6 -21 -6 -16 -8 3 -14 -1 -14 -8 0 -8 -11 -14 -25 -14 -17 0
-25 6 -25 17 0 11 -6 15 -19 11 -17 -4 -20 -14 -20 -69 0 -47 4 -66 16 -72 11
-7 12 -11 4 -16 -6 -4 -11 -16 -11 -27 0 -36 -20 -9 -21 29 -1 23 -3 29 -6 15
-2 -13 -7 -23 -11 -23 -9 0 -72 44 -72 51 0 3 -11 4 -25 1 -26 -4 -35 -22 -12
-22 6 -1 21 -15 32 -33 11 -18 30 -33 42 -35 14 -2 23 -13 27 -34 8 -43 8 -60
-3 -54 -5 4 -12 0 -14 -6 -3 -7 -6 -3 -6 10 -1 28 -18 62 -31 62 -12 0 -55
-41 -64 -60 -4 -9 -5 -7 -2 6 2 12 0 28 -5 35 -7 11 -9 9 -10 -6 0 -11 -2 -29
-3 -40 -1 -11 -3 -35 -4 -52 -1 -18 -5 -32 -9 -32 -21 3 -33 -2 -33 -16 0 -8
-9 -19 -20 -25 -13 -7 -20 -21 -21 -43 0 -18 -4 -41 -9 -52 -7 -17 -9 -16 -10
10 -1 17 -4 24 -7 18 -2 -7 -13 -13 -23 -13 -18 0 -44 -52 -33 -64 4 -3 1 -6
-5 -6 -7 0 -12 5 -12 12 0 6 -9 3 -21 -8 -11 -10 -16 -20 -10 -22 20 -7 11
-24 -9 -19 -11 3 -20 1 -20 -4 0 -5 7 -9 16 -9 8 0 12 -4 9 -10 -3 -5 -2 -10
4 -10 14 0 26 22 23 43 -4 21 8 22 33 3 16 -12 17 -16 6 -29 -7 -9 -10 -21 -6
-27 3 -5 1 -10 -4 -10 -6 0 -11 6 -12 13 0 6 -4 3 -9 -8 -13 -30 -12 -38 5
-31 8 3 15 1 15 -3 0 -5 3 -18 7 -28 6 -16 5 -16 -11 -4 -24 20 -33 6 -44 -61
-7 -47 -6 -58 5 -58 7 0 13 -6 13 -12 0 -9 3 -8 9 1 12 18 2 -67 -9 -89 -6
-10 -10 -2 -15 25 -4 22 -8 44 -9 48 -4 18 -25 -40 -31 -85 -3 -27 -10 -48
-15 -48 -5 0 -7 15 -3 33 4 17 7 55 7 83 1 29 4 50 7 48 8 -4 29 74 29 105 0
12 -4 21 -10 21 -5 0 -10 -4 -10 -10 0 -5 -5 -10 -11 -10 -19 0 -36 -25 -43
-65 -10 -57 -26 -95 -41 -95 -7 0 -15 -12 -18 -27 -3 -16 -9 -36 -12 -45 -4
-10 -3 -18 3 -18 6 0 13 14 17 30 4 17 11 30 17 30 11 0 1 -60 -13 -74 -5 -6
-9 -22 -9 -37 0 -15 -7 -29 -15 -33 -10 -3 -15 1 -15 12 0 15 -2 15 -10 2 -7
-11 -4 -19 11 -31 20 -15 20 -19 9 -55 -7 -21 -18 -52 -26 -67 -8 -16 -14 -42
-14 -58 0 -16 -5 -29 -12 -29 -8 -1 -6 -6 5 -14 20 -15 23 -28 4 -21 -6 3 -17
-4 -22 -16 -16 -34 -30 -23 -31 25 -1 34 3 46 15 49 11 3 9 5 -6 6 -19 1 -22
5 -16 31 4 24 2 30 -11 30 -13 0 -16 5 -11 21 5 15 4 19 -4 15 -6 -4 -11 -16
-11 -27 0 -10 -4 -19 -9 -19 -15 0 -23 -52 -10 -61 10 -6 10 -11 -1 -23 -7 -9
-11 -19 -8 -21 3 -3 0 -26 -7 -52 -12 -47 -46 -76 -61 -51 -4 6 -3 8 3 5 10
-6 23 13 23 34 0 18 -32 -5 -41 -29 -7 -19 -13 -22 -21 -14 -17 17 -38 15 -32
-3 4 -9 -1 -18 -12 -22 -11 -4 -27 -16 -37 -28 -17 -20 -17 -20 -11 8 6 27 6
28 -15 15 -13 -8 -20 -20 -17 -30 2 -10 0 -21 -5 -24 -5 -3 -9 4 -9 14 0 34
-61 62 -87 40 -10 -8 -13 -7 -13 3 0 10 -3 10 -12 1 -7 -7 -20 -12 -31 -12
-10 0 -15 -5 -12 -10 4 -6 11 -7 18 -3 13 8 77 11 77 3 0 -8 -71 -37 -100 -41
-14 -2 -28 -8 -31 -12 -4 -5 -9 7 -13 27 -4 20 -11 36 -16 36 -6 0 -5 11 1 26
10 29 7 40 -10 29 -13 -7 -14 -45 -2 -64 9 -14 -8 -71 -22 -71 -4 0 -5 -5 -1
-12 9 -15 16 -123 7 -114 -4 3 -17 -1 -31 -10 -13 -9 -21 -11 -18 -5 13 21 -3
30 -33 20 -17 -6 -34 -22 -41 -40 -7 -16 -16 -29 -21 -29 -12 0 -12 17 0 24 5
3 11 15 14 26 3 14 1 18 -6 13 -7 -5 -20 -8 -31 -8 -10 0 -25 -10 -34 -23 -13
-20 -13 -22 1 -17 26 11 28 -12 3 -29 -33 -21 -41 -23 -43 -11 -2 6 1 10 6 10
16 0 25 15 10 17 -8 0 -18 2 -24 3 -5 2 -14 3 -19 4 -5 0 -3 8 4 16 18 21 3
32 -21 16 -35 -21 -34 -3 1 42 18 23 38 48 43 54 7 10 3 10 -22 2 -17 -6 -31
-16 -31 -22 0 -7 -15 -28 -34 -47 -38 -39 -35 -72 6 -64 21 4 21 4 3 -4 -23
-10 -55 -4 -55 11 0 5 -8 3 -18 -6 -10 -10 -22 -14 -27 -10 -4 5 -3 -2 4 -14
16 -31 14 -63 -4 -63 -9 0 -15 9 -15 25 0 27 -9 32 -27 14 -8 -8 -18 -6 -37 7
-23 17 -26 24 -21 59 4 29 0 51 -15 80 -22 43 -25 71 -11 108 11 28 6 38 -16
30 -11 -4 -14 -21 -12 -72 2 -49 -1 -73 -14 -92 -24 -36 -27 -105 -6 -148 10
-21 14 -43 10 -54 -4 -11 -4 -39 -1 -63 4 -27 2 -57 -7 -81 -7 -21 -10 -50 -7
-65 5 -23 3 -26 -15 -21 -12 3 -24 16 -27 32 -10 46 -13 51 -28 45 -20 -7 -30
-47 -31 -120 0 -35 -6 -68 -14 -77 -19 -23 -23 -127 -5 -127 18 0 33 40 39
101 2 27 6 53 10 59 9 15 25 2 25 -21 0 -25 14 -24 31 2 13 19 14 18 17 -20 1
-23 -1 -41 -5 -41 -5 0 -17 -16 -28 -36 -20 -37 -22 -83 -5 -94 7 -4 3 -38
-11 -96 -12 -52 -24 -148 -29 -230 -4 -77 -12 -149 -18 -160 -28 -54 -43 -121
-32 -148 13 -35 13 -36 -6 -36 -14 0 -15 -12 -10 -102 13 -218 12 -342 -3
-354 -12 -9 -12 -22 -3 -70 6 -32 14 -83 17 -112 6 -48 5 -54 -13 -59 -22 -5
-46 -49 -32 -58 4 -3 15 2 24 10 8 8 17 11 20 6 3 -5 -1 -14 -9 -21 -16 -13
-21 -70 -6 -70 16 0 33 -95 24 -131 -5 -19 -6 -50 -2 -69 4 -19 9 -51 10 -70
2 -19 5 -39 8 -45 3 -5 7 -26 8 -45 3 -48 18 -159 33 -255 13 -76 39 -133 54
-117 4 3 2 -6 -3 -21 -7 -19 -8 -35 -1 -46 10 -20 49 -180 59 -246 5 -33 10
-40 27 -37 29 4 41 -28 17 -45 -15 -12 -21 -10 -45 16 -18 19 -25 35 -21 50 3
12 1 27 -5 34 -5 6 -13 28 -17 47 -4 19 -13 49 -20 65 -7 17 -16 39 -21 50 -6
16 -9 9 -14 -30 -4 -27 -8 -42 -8 -32 -1 9 -6 17 -12 17 -5 0 -10 13 -10 28 0
16 -3 32 -7 36 -4 4 -9 19 -11 34 -2 15 -20 95 -42 178 -21 83 -41 176 -45
206 -5 43 -11 57 -26 61 -23 6 -25 27 -3 27 15 0 16 9 9 73 -4 39 -8 84 -9 99
0 14 -4 24 -8 21 -5 -2 -8 11 -8 29 0 18 -5 53 -11 78 -11 48 -23 133 -40 275
-16 140 -17 146 -29 220 -19 115 -41 312 -60 549 -6 66 -17 148 -25 183 -8 35
-17 83 -19 106 -3 23 -9 56 -15 74 -5 17 -7 34 -3 37 3 3 0 6 -6 6 -8 0 -9 7
-1 27 6 16 7 43 3 63 -4 19 -6 44 -5 55 1 12 -3 32 -8 45 -5 14 -10 19 -10 12
-1 -7 -6 -10 -11 -7 -7 4 -6 13 1 26 5 11 7 30 3 42 -5 12 -7 25 -6 30 3 9
-10 9 -26 -2 -18 -11 -15 -229 3 -291 18 -60 39 -219 30 -228 -4 -4 -16 4 -27
18 l-20 24 6 -114 c10 -198 9 -249 -6 -273 -10 -15 -12 -31 -6 -52 7 -27 17
-122 22 -215 2 -38 11 -78 29 -125 6 -16 12 -82 13 -145 1 -147 25 -349 58
-485 9 -38 23 -101 32 -140 8 -38 17 -81 21 -95 4 -17 2 -22 -5 -15 -10 9 -19
40 -39 125 -8 35 -33 70 -49 70 -8 0 -14 5 -14 10 0 6 -6 10 -14 10 -22 0 -27
40 -25 233 1 100 -3 202 -9 227 -23 96 -50 400 -56 635 -14 490 -16 770 -6
852 5 48 12 108 14 133 7 74 27 182 42 231 8 26 19 69 23 95 5 27 18 99 29
159 11 61 23 130 26 155 3 25 10 70 16 100 5 30 12 82 15 115 12 128 56 325
107 480 11 33 23 74 28 90 10 39 117 344 130 370 23 50 40 99 40 119 0 21 17
46 30 46 22 0 39 -93 20 -105 -6 -4 -10 -14 -9 -23 1 -10 -4 -30 -10 -47 -7
-16 -15 -48 -18 -70 l-4 -40 21 24 c11 13 23 21 26 18 12 -11 -5 -37 -30 -47
-28 -10 -47 -39 -51 -78 -1 -15 -8 -28 -14 -30 -6 -2 -11 -18 -11 -35 0 -25 3
-28 13 -18 6 6 12 15 13 19 2 22 27 65 31 55 3 -9 10 -10 23 -3 20 11 34 -8
24 -33 -2 -7 2 -29 9 -48 8 -18 13 -49 12 -66 -3 -33 8 -43 20 -22 4 6 13 8
20 5 7 -2 16 2 19 9 3 8 12 12 20 9 8 -3 16 2 19 13 4 16 5 16 6 1 1 -25 -80
-83 -91 -66 -4 7 -8 10 -9 6 -3 -17 -6 -24 -20 -52 -10 -22 -11 -30 -2 -33 9
-3 8 -11 -3 -29 -16 -23 -15 -24 7 -24 12 0 19 -3 16 -6 -3 -4 -1 -16 5 -27
l11 -21 17 22 c14 17 27 21 59 19 22 -1 41 -4 41 -7 0 -3 -14 -13 -30 -22 -20
-11 -28 -22 -24 -32 3 -9 1 -16 -4 -16 -6 0 -13 9 -17 20 -5 16 -10 17 -30 8
-22 -10 -42 -58 -23 -58 5 0 7 -4 3 -9 -12 -21 15 -20 50 0 35 21 37 21 33 3
-2 -11 -13 -20 -26 -22 -16 -3 -22 -10 -22 -29 0 -21 -2 -24 -15 -13 -12 10
-15 9 -16 -6 -3 -59 15 -154 30 -154 15 0 43 39 36 50 -4 7 5 25 21 41 15 16
25 31 22 34 -8 8 -38 -6 -38 -17 0 -6 -6 -5 -15 2 -17 14 -40 3 -27 -13 11
-14 22 -57 16 -57 -3 0 -12 16 -20 36 -15 35 -14 36 18 65 29 28 33 29 44 14
13 -17 34 -13 34 6 0 6 -4 8 -9 5 -5 -3 -11 1 -14 9 -4 10 -1 12 10 8 10 -4
14 -2 10 4 -4 6 3 19 15 29 12 11 18 13 13 5 -6 -11 -3 -13 14 -8 18 4 20 3
10 -9 -15 -18 -3 -32 13 -16 15 15 32 16 23 2 -10 -16 8 -11 30 8 30 27 62 67
45 56 -8 -5 -28 -9 -43 -10 -24 -1 -25 0 -11 10 14 10 12 12 -9 11 -14 0 -29
-3 -33 -7 -4 -5 -18 -8 -32 -8 -14 0 -31 -8 -39 -17 -8 -10 -12 -12 -8 -5 3 6
1 12 -5 12 -7 0 1 14 17 30 15 17 37 30 48 30 12 0 26 5 31 10 6 6 26 19 45
29 22 12 34 26 34 40 0 12 7 26 14 30 7 5 15 21 16 37 2 16 6 44 9 62 5 24 3
31 -5 27 -8 -5 -9 -1 -4 14 3 11 2 21 -2 21 -10 0 -9 34 2 67 4 12 18 24 31
27 18 5 23 13 22 30 -2 21 -5 23 -25 15 -44 -16 -73 -41 -73 -63 0 -15 -3 -17
-9 -7 -7 10 -13 11 -30 2 -11 -7 -21 -18 -21 -25 0 -21 -35 -47 -54 -40 -10 4
-16 1 -16 -9 0 -8 -6 -17 -13 -20 -28 -11 -10 35 24 61 19 14 36 29 39 32 3 3
37 30 75 60 39 30 75 60 80 66 6 6 22 18 38 27 15 10 27 23 27 29 0 6 8 20 18
31 17 20 17 20 -15 2 -18 -11 -33 -22 -33 -26 0 -4 -6 -9 -13 -12 -17 -7 -18
24 -1 40 7 8 11 23 9 34 -4 20 -3 20 20 5 28 -19 55 -11 55 14 0 11 5 22 10
25 17 11 1 25 -28 25 -17 0 -32 -8 -40 -21 -7 -12 -16 -18 -19 -15 -3 3 -15 0
-27 -6 -11 -6 -2 6 22 27 31 27 41 42 37 56 -4 11 -2 19 4 19 6 0 11 -7 11
-15 0 -8 9 -15 20 -15 13 0 20 7 20 20 0 11 5 20 10 20 6 0 10 5 10 11 0 6 -7
8 -16 5 -8 -3 -13 -2 -10 3 10 15 71 6 68 -10 -1 -8 7 -3 18 10 11 13 20 29
20 36 0 7 17 29 37 49 31 30 34 36 18 36 -19 1 -19 2 2 19 12 10 19 22 15 25
-3 4 1 4 10 1 9 -4 22 1 29 10 8 9 20 21 27 28 8 7 25 23 38 36 16 16 39 25
67 28 23 2 47 9 52 16 6 7 17 13 25 15 8 2 24 13 34 24 18 19 20 19 32 4 11
-15 13 -15 28 -1 22 22 20 28 -3 15 -14 -7 -22 -7 -27 2 -4 6 -3 8 4 4 6 -3
13 -2 16 3 12 19 -17 24 -30 6 -8 -10 -17 -16 -20 -13 -9 10 102 119 118 116
7 -2 12 4 12 13 -1 11 7 17 23 17 29 0 48 16 48 40 0 9 7 17 16 17 9 0 24 7
33 14 15 13 16 12 7 -11 -10 -26 -10 -26 20 -11 17 8 29 22 29 34 0 17 11 24
33 20 4 0 6 4 5 11 -2 7 3 12 9 13 7 0 20 10 28 22 9 12 21 20 28 17 8 -3 19
6 25 21 16 34 23 31 15 -7z m187 -89 c0 -5 -4 -9 -10 -9 -5 0 -10 7 -10 16 0
8 5 12 10 9 6 -3 10 -10 10 -16z m400 -87 c0 -7 -4 -10 -10 -7 -5 3 -10 16
-10 28 0 18 2 19 10 7 5 -8 10 -21 10 -28z m-435 -30 c-12 -13 -24 22 -12 37
10 12 13 11 15 -8 2 -13 1 -26 -3 -29z m-761 -137 c-4 -8 -13 -15 -22 -15 -13
0 -12 3 4 15 24 18 25 18 18 0z m-134 -15 c12 -8 11 -10 -7 -10 -13 0 -23 5
-23 10 0 13 11 13 30 0z m130 -24 c0 -3 -4 -8 -10 -11 -5 -3 -10 -1 -10 4 0 6
5 11 10 11 6 0 10 -2 10 -4z m-107 -26 c6 -24 -3 -32 -23 -20 -11 7 -11 11 -1
24 17 20 18 20 24 -4z m1297 -21 c0 -6 -4 -7 -10 -4 -5 3 -10 11 -10 16 0 6 5
7 10 4 6 -3 10 -11 10 -16z m-85 -47 c-5 -14 -7 -14 -15 -2 -13 20 -12 33 0
25 6 -3 11 4 11 17 l2 23 4 -23 c3 -13 2 -31 -2 -40z m-1842 -4 c4 -12 4 -24
1 -27 -8 -9 -37 27 -30 38 11 17 23 13 29 -11z m499 3 c-8 -4 -13 -11 -13 -15
4 -28 -2 -36 -24 -36 -36 0 -31 25 10 48 23 13 47 16 27 3z m1463 -32 c10 -15
-1 -23 -20 -15 -9 3 -13 10 -10 16 8 13 22 13 30 -1z m45 -11 c0 -13 -23 -5
-28 10 -2 7 2 10 12 6 9 -3 16 -11 16 -16z m-30 -52 c0 -7 -9 -16 -20 -19 -22
-6 -23 -5 -14 17 8 20 34 21 34 2z m-72 -88 c-3 -7 -13 -15 -23 -16 -15 -4
-16 -2 -4 12 17 19 32 21 27 4z m-1728 -50 c0 -18 -2 -20 -9 -8 -6 8 -7 18 -5
22 9 14 14 9 14 -14z m-45 -38 c-3 -5 -14 -10 -23 -9 -14 0 -13 2 3 9 27 11
27 11 20 0z m-30 -30 c3 -5 -8 -21 -25 -36 -31 -28 -39 -54 -17 -54 7 0 4 -7
-7 -15 -23 -17 -40 -20 -31 -5 3 6 -1 7 -9 4 -10 -4 -16 -1 -16 9 0 8 7 17 15
21 8 3 15 12 15 20 0 33 23 66 46 66 13 0 25 -4 29 -10z m155 -65 c0 -2 -10
-9 -22 -15 -22 -11 -22 -10 -4 4 21 17 26 19 26 11z m1464 -38 c-3 -9 -10 -17
-15 -17 -5 0 -9 -7 -9 -15 0 -8 -7 -15 -15 -15 -20 0 -19 8 6 49 20 34 47 32
33 -2z m119 -39 c4 -24 1 -40 -7 -48 -11 -8 -14 2 -14 52 -2 66 11 64 21 -4z
m-1798 -37 c-7 -12 -45 -21 -45 -11 0 12 33 30 42 23 5 -2 6 -8 3 -12z m75 3
c0 -8 -4 -12 -10 -9 -5 3 -10 10 -10 16 0 5 5 9 10 9 6 0 10 -7 10 -16z m1663
-52 c-6 -14 -8 -13 -14 8 -4 14 -7 34 -8 45 -1 16 2 14 14 -8 8 -15 11 -35 8
-45z m-1823 8 c-20 -13 -33 -13 -25 0 3 6 14 10 23 10 15 0 15 -2 2 -10z m95
-27 c9 -12 10 -25 4 -42 -6 -16 -6 -27 0 -31 6 -3 -2 -13 -17 -22 -26 -15 -28
-15 -30 0 -1 9 -4 35 -7 57 l-5 40 12 -35 13 -35 3 43 c3 46 8 51 27 25z
m1575 7 c0 -5 7 -7 15 -4 10 4 15 0 15 -14 0 -15 -5 -19 -20 -15 -18 5 -20 0
-21 -38 0 -50 -9 -132 -15 -138 -2 -2 -4 17 -4 43 0 43 -2 48 -20 43 -19 -5
-19 -4 -2 18 9 13 20 21 25 18 4 -2 7 3 7 12 0 9 -4 13 -10 10 -14 -9 -13 48
2 63 14 14 28 16 28 2z m157 -52 c-3 -8 -6 -5 -6 6 -1 11 2 17 5 13 3 -3 4
-12 1 -19z m73 2 c0 -5 -2 -10 -4 -10 -3 0 -8 5 -11 10 -3 6 -1 10 4 10 6 0
11 -4 11 -10z m-207 -6 c9 -9 -4 -35 -14 -28 -5 3 -9 12 -9 20 0 14 12 19 23
8z m-1402 -47 c-10 -9 -11 -8 -5 6 3 10 9 15 12 12 3 -3 0 -11 -7 -18z m6 -24
c-4 -3 -1 -13 6 -22 10 -14 10 -14 -4 -3 -14 11 -21 9 -45 -11 -19 -17 -25
-28 -18 -38 5 -8 7 -22 6 -32 -2 -10 2 -24 8 -32 12 -14 5 -55 -9 -55 -4 0 -7
10 -8 21 -3 33 -13 36 -34 10 -23 -28 -36 -22 -19 9 6 12 9 33 6 46 -5 20 1
32 26 57 18 18 45 37 58 44 30 14 36 15 27 6z m1282 -30 c0 -5 -4 -17 -9 -28
-8 -18 -9 -17 -9 8 -1 15 4 27 9 27 6 0 10 -3 9 -7z m-1266 -96 c7 4 5 -1 -3
-11 -8 -10 -16 -13 -18 -8 -2 6 -10 8 -18 5 -19 -7 -18 12 4 45 l17 26 3 -32
c2 -22 7 -30 15 -25z m1544 21 c-3 -8 -6 -5 -6 6 -1 11 2 17 5 13 3 -3 4 -12
1 -19z m-300 -60 c-3 -7 -5 -2 -5 12 0 14 2 19 5 13 2 -7 2 -19 0 -25z m88 22
c3 -5 1 -10 -4 -10 -6 0 -11 5 -11 10 0 6 2 10 4 10 3 0 8 -4 11 -10z m-8 -57
c-3 -10 -5 -4 -5 12 0 17 2 24 5 18 2 -7 2 -21 0 -30z m-1527 13 c0 -2 -3 -11
-6 -20 -5 -12 -9 -13 -25 -3 -26 16 -24 27 6 27 14 0 25 -2 25 -4z m1385 -73
c-20 -19 -22 -17 -18 20 7 55 15 65 23 28 6 -24 4 -38 -5 -48z m-1270 22 c-16
-14 -31 -20 -33 -15 -5 15 21 39 43 39 17 0 16 -3 -10 -24z m1309 -95 c-16
-96 -22 -116 -23 -80 -1 30 18 150 26 162 12 20 11 -1 -3 -82z m-1359 61 c-3
-6 -14 -11 -23 -11 -15 1 -15 2 2 15 21 16 32 13 21 -4z m1442 -63 c-3 -8 -6
-5 -6 6 -1 11 2 17 5 13 3 -3 4 -12 1 -19z m-33 -19 c-3 -5 -10 -7 -15 -3 -5
3 -7 10 -3 15 3 5 10 7 15 3 5 -3 7 -10 3 -15z m21 -166 c-3 -96 -6 -119 -18
-121 -9 -2 -21 6 -27 17 -13 25 -3 72 15 65 9 -4 14 16 19 75 4 45 9 81 11 81
2 0 2 -53 0 -117z m-93 37 c-2 -22 -9 -43 -15 -47 -7 -4 -8 0 -4 11 4 10 7 31
7 47 0 16 3 29 8 29 4 0 6 -18 4 -40z m70 0 c-6 -41 -12 -38 -12 6 0 19 4 33
8 30 5 -3 7 -19 4 -36z m-172 8 c0 -7 -4 -19 -9 -27 -8 -12 -12 -12 -25 2 -20
20 -20 28 -1 21 8 -4 15 -1 15 5 0 6 5 11 10 11 6 0 10 -6 10 -12z m55 -8 c3
-5 1 -10 -4 -10 -6 0 -11 5 -11 10 0 6 2 10 4 10 3 0 8 -4 11 -10z m-138 -72
c-3 -7 -5 -2 -5 12 0 14 2 19 5 13 2 -7 2 -19 0 -25z m84 -7 c22 12 39 4 39
-17 0 -18 -25 -46 -34 -37 -3 4 -6 1 -6 -5 0 -7 -7 -12 -16 -12 -9 0 -22 -7
-28 -16 -9 -12 -11 -6 -8 28 4 43 23 81 30 59 3 -8 9 -8 23 0z m76 -48 c-3
-10 -5 -2 -5 17 0 19 2 27 5 18 2 -10 2 -26 0 -35z m-78 -115 c1 -16 -2 -28
-6 -28 -5 0 -9 21 -9 48 -1 32 1 41 7 27 4 -11 8 -32 8 -47z m-61 -3 c-6 -28
-13 -45 -15 -38 -4 12 16 97 22 91 2 -2 -1 -26 -7 -53z m119 23 c-3 -8 -6 -5
-6 6 -1 11 2 17 5 13 3 -3 4 -12 1 -19z m-537 -266 c0 -13 -12 -22 -22 -16
-10 6 -1 24 13 24 5 0 9 -4 9 -8z m-46 -15 c-7 -20 -57 -55 -88 -63 -15 -3
-31 -15 -37 -25 -14 -27 -23 -24 -36 12 -17 43 -2 68 40 71 18 1 42 2 54 3 12
0 25 4 29 8 13 13 44 8 38 -6z m-574 -226 c0 -5 -8 -17 -17 -28 -10 -10 -15
-14 -10 -9 4 6 7 18 7 28 0 10 5 18 10 18 6 0 10 -4 10 -9z m-122 -79 c2 -7
-6 -12 -17 -12 -21 0 -27 11 -14 24 9 9 26 2 31 -12z m-91 -34 c-3 -8 -6 -5
-6 6 -1 11 2 17 5 13 3 -3 4 -12 1 -19z m1833 -213 c13 0 15 -19 12 -125 -3
-113 -6 -129 -28 -162 -13 -21 -24 -43 -24 -50 0 -8 -3 -9 -8 -3 -4 6 -16 15
-27 21 -43 24 -23 267 27 319 15 16 25 20 28 12 3 -7 12 -12 20 -12z m-709
-64 c7 11 9 9 9 -8 0 -24 29 -33 31 -10 0 10 2 10 6 0 8 -22 31 -14 41 15 l10
27 1 -25 c1 -20 3 -22 12 -10 8 12 9 11 7 -7 -2 -12 2 -22 7 -23 6 0 11 11 13
25 4 29 22 33 29 7 6 -24 59 -55 84 -49 14 4 19 0 19 -14 0 -12 7 -19 20 -19
14 0 20 -7 20 -22 0 -13 4 -30 10 -38 5 -8 5 -19 1 -25 -5 -5 -13 -23 -19 -40
-9 -26 -11 -27 -11 -7 -1 23 -26 31 -34 10 -3 -7 -6 -1 -6 13 -1 33 -30 34
-49 2 -7 -13 -19 -24 -27 -24 -8 -1 -21 -2 -27 -3 -7 -1 -19 -9 -26 -19 -12
-15 -16 -16 -29 -5 -9 7 -18 12 -20 11 -11 -9 -33 -1 -33 12 0 8 -9 15 -20 15
-11 0 -20 -4 -20 -9 0 -6 -12 -6 -30 -1 -21 6 -34 5 -42 -4 -10 -10 -19 -6
-46 21 -18 18 -37 31 -42 28 -5 -3 -12 1 -17 8 -4 8 -26 20 -48 28 -39 13 -47
15 -72 18 -8 1 -10 16 -7 49 8 76 43 96 167 95 9 0 17 4 17 8 0 4 9 7 20 6 11
-1 20 -8 20 -17 0 -12 2 -12 9 -1 5 8 16 11 30 6 16 -5 21 -2 23 12 0 10 3 3
5 -16 3 -26 7 -31 14 -20z m409 -41 c11 -22 24 -57 28 -77 11 -52 36 -51 40 2
4 66 11 85 31 85 18 0 19 -7 15 -92 -3 -51 -5 -104 -4 -118 0 -13 -7 -48 -15
-76 -15 -51 -15 -51 -62 -58 -64 -9 -88 12 -77 69 4 22 8 78 8 125 2 124 5
180 11 180 2 0 14 -18 25 -40z m471 -104 c15 -17 10 -38 -8 -34 -10 2 -18 9
-17 16 6 75 7 78 11 52 3 -14 9 -29 14 -34z m-2071 -30 c0 -17 -14 -29 -23
-20 -8 8 3 34 14 34 5 0 9 -6 9 -14z m2578 -190 c77 -12 97 -64 44 -114 -16
-15 -31 -33 -33 -41 -4 -11 -25 -15 -78 -17 -76 -3 -78 -3 -137 53 -61 56 -39
114 46 122 19 2 36 4 37 4 4 4 73 0 121 -7z m-1627 -6 c20 -6 44 -19 53 -29
15 -17 16 -24 5 -60 -7 -23 -17 -41 -22 -41 -6 0 -7 -3 -4 -7 11 -10 -43 -34
-80 -35 -19 -1 -36 -5 -38 -9 -3 -4 -20 -3 -38 2 -17 5 -56 10 -85 12 -53 4
-92 27 -92 54 0 15 9 16 29 4 17 -11 61 33 61 60 0 46 121 74 211 49z m681
-53 c21 -7 40 -15 42 -18 2 -2 7 -60 10 -128 3 -68 8 -127 11 -131 3 -5 1 -11
-5 -15 -5 -3 -10 -23 -10 -43 0 -20 -4 -44 -10 -52 -6 -9 -5 -17 1 -21 16 -9
15 -467 -1 -482 -9 -9 -11 -1 -8 38 3 45 1 50 -17 50 -11 0 -27 6 -36 14 -13
13 -13 18 1 47 20 44 30 43 23 -3 -4 -26 -3 -34 5 -29 7 4 12 14 12 22 0 8 5
14 10 14 6 0 10 11 10 24 0 25 -31 41 -48 24 -5 -5 -26 -11 -46 -12 -35 -3
-36 -3 -32 30 5 40 -3 48 -38 34 -16 -6 -27 -6 -31 1 -4 5 -12 9 -18 8 -13 -2
-67 18 -67 25 0 25 23 54 47 59 15 3 37 9 47 13 14 5 17 4 12 -4 -11 -18 15
-14 47 7 25 16 26 19 10 25 -12 5 -14 9 -5 14 8 6 7 12 -7 24 -12 10 -23 13
-32 7 -11 -7 -10 -9 4 -9 9 0 17 -4 17 -10 0 -5 -6 -10 -14 -10 -8 0 -16 -7
-20 -15 -3 -8 -18 -15 -34 -15 -15 0 -33 -5 -40 -12 -9 -9 -15 -9 -24 0 -9 9
-9 12 0 12 7 0 12 4 12 9 0 5 -9 7 -20 4 -15 -4 -19 -11 -15 -24 4 -13 1 -19
-9 -19 -9 0 -16 7 -16 15 0 9 -10 15 -22 16 -21 1 -21 2 -3 6 11 3 29 11 39
19 18 12 18 13 -8 20 -14 3 -26 10 -26 16 0 5 5 6 11 2 6 -3 15 0 20 7 10 16
1 88 -14 107 -7 8 -5 12 7 12 9 0 20 10 25 22 8 21 8 21 15 -7 7 -26 8 -27 20
-9 7 10 16 35 20 55 3 20 15 44 26 54 11 10 20 28 20 40 0 12 11 34 25 49 14
15 25 36 25 46 0 25 39 90 53 90 7 0 29 -6 49 -13z m729 -82 c-1 -15 -24 -12
-29 3 -3 9 2 13 12 10 10 -1 17 -7 17 -13z m-1556 -85 c-3 -5 -10 -10 -16 -10
-5 0 -9 5 -9 10 0 6 7 10 16 10 8 0 12 -4 9 -10z m1015 -112 c7 -13 15 -45 16
-73 1 -27 2 -52 3 -55 1 -3 15 -14 31 -23 36 -22 68 -74 44 -74 -8 0 -14 4
-14 9 0 4 -6 8 -13 8 -7 0 -18 8 -26 18 -9 13 -22 17 -44 14 -28 -4 -30 -3
-19 11 8 9 11 21 7 27 -9 15 -25 12 -25 -4 0 -8 -5 -16 -12 -18 -13 -5 -48 26
-48 42 0 5 -8 14 -17 19 -16 9 -16 12 -3 20 9 7 19 6 27 -1 7 -6 13 -7 13 -2
0 4 5 3 12 -4 18 -18 31 -14 25 8 -3 11 -1 23 5 26 5 4 8 19 4 34 -8 44 10 54
34 18z m-1167 -36 c-3 -26 16 -37 77 -47 25 -4 48 -12 52 -18 4 -7 11 -7 21 2
11 9 17 9 22 1 5 -8 13 -6 25 5 18 16 71 28 69 16 0 -3 -4 -15 -9 -26 -7 -17
-9 -17 -9 -2 -1 24 -21 22 -21 -3 0 -17 -10 -23 -36 -19 -4 0 -10 -4 -13 -10
-4 -5 -20 -12 -36 -15 -17 -3 -36 -14 -44 -23 -12 -17 -13 -16 -6 5 5 16 2 22
-9 22 -8 0 -18 -5 -21 -10 -5 -8 -11 -8 -19 -1 -7 6 -23 12 -37 14 -17 3 -25
12 -29 33 -5 23 -11 28 -28 27 -17 -2 -22 2 -22 22 0 13 -5 27 -11 31 -18 11
7 21 49 19 32 -1 37 -5 35 -23z m611 -57 c-4 -8 -8 -15 -10 -15 -2 0 -4 7 -4
15 0 8 4 15 10 15 5 0 7 -7 4 -15z m-11 -55 c-3 -12 -8 -19 -11 -16 -5 6 5 36
12 36 2 0 2 -9 -1 -20z m464 -42 c-3 -8 -6 -5 -6 6 -1 11 2 17 5 13 3 -3 4
-12 1 -19z m-1428 -33 c13 -14 27 -25 32 -25 5 0 9 -7 9 -15 0 -8 7 -15 15
-15 11 0 14 -10 11 -42 -2 -24 -2 -36 1 -27 5 19 43 33 55 21 4 -4 10 -21 13
-37 5 -24 2 -33 -16 -43 -21 -13 -21 -12 -17 27 2 23 0 41 -4 41 -5 0 -8 -19
-8 -42 0 -44 -19 -94 -20 -53 0 15 -2 17 -9 6 -6 -9 -18 -11 -39 -6 -18 3 -33
2 -37 -4 -7 -13 -27 4 -38 32 -10 28 -32 15 -35 -21 -2 -24 1 -32 12 -32 9 0
16 -4 16 -10 0 -5 -6 -7 -13 -4 -8 3 -18 -5 -24 -18 -9 -19 -10 -16 -7 22 2
25 7 58 10 74 5 21 3 27 -6 21 -8 -5 -11 -4 -6 3 4 6 12 9 19 6 16 -6 77 51
77 72 0 8 -4 13 -9 10 -5 -3 -11 14 -13 39 -2 25 -1 45 2 45 3 0 16 -12 29
-25z m894 10 c4 -8 2 -17 -3 -20 -6 -4 -10 -1 -10 4 0 18 -19 12 -30 -9 -15
-28 -1 -49 17 -25 7 11 13 13 13 7 0 -7 5 -12 10 -12 6 0 10 7 10 15 0 8 5 15
11 15 6 0 9 -9 6 -20 -4 -18 -2 -20 16 -14 12 4 25 12 29 18 5 7 8 6 8 -3 0
-11 4 -11 18 3 18 15 20 15 35 -2 10 -10 17 -26 17 -35 0 -9 7 -17 15 -17 26
0 16 -16 -11 -18 -14 -1 -23 2 -19 8 3 6 -1 7 -9 4 -9 -3 -16 -11 -16 -18 0
-12 -67 -41 -118 -50 -24 -4 -34 -2 -38 9 -9 23 -22 9 -17 -18 4 -18 -3 -26
-31 -40 -21 -10 -36 -12 -36 -6 0 6 -9 8 -22 4 -35 -10 -68 -28 -68 -37 0 -4
10 -8 23 -9 17 -1 15 -3 -10 -10 -23 -7 -33 -16 -33 -29 0 -25 -59 -250 -71
-270 -7 -13 -8 -13 -9 2 0 9 -5 18 -12 20 -10 4 -10 13 0 44 6 21 17 59 24 84
6 25 13 38 15 28 3 -9 -1 -26 -6 -37 -13 -24 -15 -49 -3 -35 5 5 14 28 21 52
10 35 10 47 -1 60 -7 9 -14 19 -15 21 -1 2 -9 -2 -18 -9 -13 -11 -14 -10 -10
3 9 22 55 29 56 8 0 -12 2 -11 9 4 10 24 13 51 3 42 -3 -4 -12 -2 -19 4 -14
11 -64 -14 -64 -33 0 -5 -5 -6 -11 -2 -8 4 -8 9 0 17 18 18 13 49 -6 45 -11
-2 -18 -12 -17 -26 0 -12 -3 -22 -6 -22 -4 0 -13 -12 -19 -27 -11 -27 -61 -61
-61 -42 0 5 10 13 22 18 14 5 26 25 38 62 12 42 20 53 34 51 10 -2 23 1 29 6
7 5 33 16 59 26 25 9 52 23 58 31 6 8 17 12 24 9 7 -3 19 2 26 11 7 8 21 15
32 15 20 0 21 2 38 68 6 23 14 40 19 38 4 -3 15 8 25 25 18 31 50 39 59 14z
m896 -46 c53 -27 40 -36 -21 -16 -68 24 -98 39 -98 52 0 22 12 24 43 5 18 -10
52 -29 76 -41z m-362 19 c-3 -7 -5 -2 -5 12 0 14 2 19 5 13 2 -7 2 -19 0 -25z
m-477 -8 c0 -5 -5 -10 -11 -10 -5 0 -7 5 -4 10 3 6 8 10 11 10 2 0 4 -4 4 -10z
m518 -35 c-3 -3 -9 2 -12 12 -6 14 -5 15 5 6 7 -7 10 -15 7 -18z m-1588 -85
c-6 -12 -14 -20 -17 -17 -2 3 1 14 8 26 17 26 24 19 9 -9z m1180 10 c0 -5 -7
-10 -15 -10 -8 0 -15 5 -15 10 0 6 7 10 15 10 8 0 15 -4 15 -10z m-845 -21 c4
-5 16 -9 28 -9 12 0 37 -9 55 -20 18 -11 41 -20 52 -20 11 0 20 -4 20 -9 0
-16 59 -40 85 -35 14 2 25 0 25 -6 0 -5 -9 -10 -20 -10 -11 0 -20 -4 -20 -10
0 -5 5 -10 10 -10 6 0 10 -7 10 -15 0 -8 -14 -17 -35 -21 -19 -3 -35 -11 -35
-18 0 -6 -8 -16 -18 -22 -16 -11 -18 -9 -14 17 4 25 1 29 -19 29 -41 -1 -69 6
-81 18 -20 20 -33 14 -50 -20 l-15 -33 0 28 c0 15 4 27 10 27 17 0 -2 63 -28
90 -37 39 -33 54 16 57 10 1 21 -2 24 -8z m921 -57 c-9 -2 -16 -14 -16 -28 0
-13 -4 -24 -10 -24 -5 0 -10 14 -10 30 0 31 -9 37 -26 20 -7 -7 -17 -5 -30 6
-10 8 -14 13 -8 10 6 -3 24 3 40 13 28 18 29 18 52 -3 19 -17 21 -22 8 -24z
m-153 27 c-8 -8 -16 -8 -30 0 -16 9 -14 10 12 11 21 0 26 -3 18 -11z m-83 -19
c0 -5 -7 -10 -16 -10 -8 0 -12 5 -9 10 3 6 10 10 16 10 5 0 9 -4 9 -10z
m-1023 -21 c1 -12 -3 -16 -13 -12 -8 3 -14 9 -14 15 0 5 -4 6 -10 3 -5 -3 -10
-1 -10 4 0 19 46 8 47 -10z m249 -6 c-10 -10 -19 5 -10 18 6 11 8 11 12 0 2
-7 1 -15 -2 -18z m814 0 c0 -5 -5 -15 -10 -23 -7 -12 -12 -12 -22 -2 -10 10
-10 15 2 22 18 12 30 13 30 3z m-140 -10 c0 -5 -16 -9 -35 -10 -19 -1 -35 2
-35 8 0 5 16 9 35 9 19 0 35 -3 35 -7z m227 -15 c-3 -8 -6 -5 -6 6 -1 11 2 17
5 13 3 -3 4 -12 1 -19z m120 -30 c-2 -13 -4 -5 -4 17 -1 22 1 32 4 23 2 -10 2
-28 0 -40z m-1162 32 c3 -5 -1 -10 -9 -10 -9 0 -16 5 -16 10 0 6 4 10 9 10 6
0 13 -4 16 -10z m882 -12 c-3 -8 -6 -5 -6 6 -1 11 2 17 5 13 3 -3 4 -12 1 -19z
m-30 -10 c-3 -8 -6 -5 -6 6 -1 11 2 17 5 13 3 -3 4 -12 1 -19z m-76 -18 c-4
-3 -12 -21 -19 -40 l-11 -35 6 45 c6 54 13 67 24 49 4 -7 5 -16 0 -19z m69
-10 c0 -5 -7 -7 -15 -4 -8 4 -15 8 -15 10 0 2 7 4 15 4 8 0 15 -4 15 -10z m40
-10 c0 -11 -4 -20 -10 -20 -5 0 -10 9 -10 20 0 11 5 20 10 20 6 0 10 -9 10
-20z m417 -17 c-3 -10 -5 -4 -5 12 0 17 2 24 5 18 2 -7 2 -21 0 -30z m-237 16
c11 -8 12 -12 3 -16 -7 -2 -13 -11 -13 -19 0 -15 20 -18 58 -8 l23 7 -22 11
c-12 6 -24 17 -27 24 -7 21 29 13 61 -14 l32 -27 6 24 c6 21 7 22 8 3 1 -11
-9 -30 -22 -41 -20 -16 -33 -19 -80 -15 -42 3 -54 8 -50 18 6 17 -23 19 -33 3
-4 -8 -10 -7 -18 1 -8 8 -7 14 7 21 9 6 23 16 30 24 15 17 18 18 37 4z m-90
-9 c0 -5 -7 -10 -16 -10 -8 0 -12 5 -9 10 3 6 10 10 16 10 5 0 9 -4 9 -10z
m295 -38 c-5 -13 -8 -14 -15 -3 -5 8 -3 19 3 26 14 15 22 1 12 -23z m392 6
c-3 -7 -5 -2 -5 12 0 14 2 19 5 13 2 -7 2 -19 0 -25z m-1317 8 c0 -3 -4 -8
-10 -11 -5 -3 -10 -1 -10 4 0 6 5 11 10 11 6 0 10 -2 10 -4z m185 -95 c-18
-56 -35 -87 -35 -62 0 30 44 155 48 137 2 -10 -4 -44 -13 -75z m435 59 c0 -5
-9 -6 -20 -3 -11 3 -20 9 -20 13 0 5 9 6 20 3 11 -3 20 -9 20 -13z m-549 -17
c-12 -20 -14 -14 -5 12 4 9 9 14 11 11 3 -2 0 -13 -6 -23z m44 -75 c-15 -51
-31 -100 -36 -108 -15 -26 -11 15 6 57 8 21 21 64 30 96 9 32 19 56 22 53 3
-2 -7 -47 -22 -98z m329 87 c-4 -8 -7 -15 -9 -15 -2 0 -5 7 -9 15 -3 9 0 15 9
15 9 0 12 -6 9 -15z m104 8 c-10 -2 -26 -2 -35 0 -10 3 -2 5 17 5 19 0 27 -2
18 -5z m-538 -50 c-11 -17 -11 -17 -6 0 3 10 7 26 7 35 1 15 2 15 6 0 2 -10
-1 -25 -7 -35z m375 -39 c-12 -54 -13 -69 -3 -76 9 -5 7 -8 -8 -8 l-20 0 20
86 c11 47 22 81 24 76 1 -5 -4 -40 -13 -78z m-424 43 c-10 -9 -11 -8 -5 6 3
10 9 15 12 12 3 -3 0 -11 -7 -18z m959 8 c0 -8 -4 -15 -10 -15 -5 0 -10 7 -10
15 0 8 5 15 10 15 6 0 10 -7 10 -15z m-366 -16 c-3 -5 -10 -7 -15 -3 -5 3 -7
10 -3 15 3 5 10 7 15 3 5 -3 7 -10 3 -15z m216 6 c0 -8 -5 -15 -11 -15 -6 0
-8 -7 -4 -17 5 -15 4 -16 -6 -5 -7 6 -21 12 -31 12 -10 0 -18 -6 -18 -12 0
-10 -2 -10 -8 0 -6 9 -21 11 -50 6 -38 -6 -42 -5 -42 14 0 13 5 20 13 17 6 -2
27 -1 45 3 68 14 112 13 112 -3z m-705 -40 c0 -44 -7 -56 -20 -34 -8 12 3 79
13 79 4 0 7 -20 7 -45z m362 13 c-3 -7 -5 -2 -5 12 0 14 2 19 5 13 2 -7 2 -19
0 -25z m-417 -32 c0 -2 -7 -6 -15 -10 -8 -3 -15 -1 -15 4 0 6 7 10 15 10 8 0
15 -2 15 -4z m404 -31 c-5 -20 -9 -23 -15 -13 -12 18 -11 31 1 23 6 -3 10 2
10 11 0 10 2 15 5 12 4 -3 3 -18 -1 -33z m142 -8 c7 -4 10 -15 7 -24 -5 -14
-8 -13 -15 6 -4 12 -12 19 -18 16 -12 -7 -13 6 -3 32 7 17 8 17 11 -2 2 -11
10 -23 18 -28z m249 33 c3 -5 1 -10 -4 -10 -6 0 -11 5 -11 10 0 6 2 10 4 10 3
0 8 -4 11 -10z m-823 -38 c3 -11 0 -19 -8 -19 -16 0 -16 0 -8 21 8 21 11 20
16 -2z m-937 -22 c-5 -8 -11 -8 -17 -2 -6 6 -7 16 -3 22 5 8 11 8 17 2 6 -6 7
-16 3 -22z m1096 -13 c-13 -13 -15 1 -4 30 7 17 8 17 11 -1 2 -10 -1 -23 -7
-29z m679 17 c0 -2 -7 -4 -15 -4 -8 0 -15 4 -15 10 0 5 7 7 15 4 8 -4 15 -8
15 -10z m-900 -3 c0 -6 -4 -13 -10 -16 -5 -3 -10 1 -10 9 0 9 5 16 10 16 6 0
10 -4 10 -9z m417 3 c-3 -3 -12 -4 -19 -1 -8 3 -5 6 6 6 11 1 17 -2 13 -5z
m615 -19 c-4 -26 -16 -32 -27 -15 -6 9 14 39 26 40 3 0 4 -11 1 -25z m-474 -2
c16 -16 16 -16 -1 -10 -10 4 -23 7 -28 7 -5 0 -9 5 -9 10 0 15 20 12 38 -7z
m152 -16 c9 -15 9 -18 -2 -13 -7 3 -21 9 -30 12 -24 8 -23 20 1 20 10 0 24 -9
31 -19z m-108 -19 c-9 -9 -12 -7 -12 12 0 19 3 21 12 12 9 -9 9 -15 0 -24z
m188 12 c-20 -13 -40 -13 -40 0 0 6 12 10 28 10 21 0 24 -2 12 -10z m-474 -26
c-4 -9 -9 -15 -11 -12 -3 3 -3 13 1 22 4 9 9 15 11 12 3 -3 3 -13 -1 -22z
m111 -6 c-3 -8 -6 -5 -6 6 -1 11 2 17 5 13 3 -3 4 -12 1 -19z m253 2 l25 -19
-46 1 c-42 2 -45 4 -35 20 14 23 25 22 56 -2z m-2020 -14 c0 -8 -4 -17 -9 -21
-12 -7 -24 12 -16 25 9 15 25 12 25 -4z m2155 -15 c3 -5 -7 -11 -22 -13 -17
-2 -32 -12 -40 -28 -8 -16 -13 -19 -13 -9 0 9 -7 20 -16 23 -22 8 -13 16 28
26 47 11 56 11 63 1z m-397 -40 c-15 -5 -19 4 -11 24 6 18 7 18 13 -1 4 -10 3
-21 -2 -23z m172 -1 c0 -5 -2 -10 -4 -10 -3 0 -8 5 -11 10 -3 6 -1 10 4 10 6
0 11 -4 11 -10z m72 -10 c9 -14 19 -18 38 -13 24 6 24 5 8 -14 -10 -11 -18
-28 -19 -39 0 -17 -1 -16 -9 4 -5 12 -16 22 -25 22 -14 0 -20 12 -16 34 1 5
-4 13 -11 17 -10 7 -9 9 4 9 10 0 23 -9 30 -20z m152 -9 c19 -11 37 -17 40
-14 3 4 5 -7 5 -23 -1 -17 -3 -22 -6 -11 -3 10 -14 17 -28 17 -12 0 -25 7 -29
15 -3 8 -11 14 -17 13 -6 -2 -14 3 -16 10 -7 17 11 15 51 -7z m212 -38 c-11
-11 -19 6 -11 24 8 17 8 17 12 0 3 -10 2 -21 -1 -24z m-736 -3 c0 -5 -4 -10
-9 -10 -6 0 -13 5 -16 10 -3 6 1 10 9 10 9 0 16 -4 16 -10z m478 3 c-15 -2
-29 -12 -31 -21 -3 -12 -5 -10 -6 6 -1 19 4 22 32 21 29 -2 29 -2 5 -6z m-376
-48 c-2 -14 -6 -25 -8 -25 -2 0 -4 11 -4 25 0 14 4 25 9 25 4 0 6 -11 3 -25z
m48 -4 c0 -16 -6 -43 -14 -61 -12 -29 -14 -30 -19 -11 -3 12 -1 21 5 21 6 0 8
17 6 40 -2 28 0 40 9 40 8 0 13 -12 13 -29z m287 -23 c-3 -8 -6 -5 -6 6 -1 11
2 17 5 13 3 -3 4 -12 1 -19z m133 12 c0 -5 -4 -10 -10 -10 -5 0 -10 5 -10 10
0 6 5 10 10 10 6 0 10 -4 10 -10z m54 -16 c24 -9 19 -24 -8 -24 -26 0 -40 12
-29 24 8 8 17 8 37 0z m-373 -97 c-7 -7 -13 -5 -17 8 -5 11 -3 20 4 23 7 2 13
13 14 25 0 12 3 7 5 -12 3 -18 0 -38 -6 -44z m-434 -19 c-3 -8 -6 -5 -6 6 -1
11 2 17 5 13 3 -3 4 -12 1 -19z m103 -51 c0 -7 -9 -20 -20 -30 -21 -18 -27 -7
-14 27 7 19 34 21 34 3z m480 -199 c0 -25 -3 -29 -12 -20 -17 17 -26 15 -31
-5 -4 -14 -5 -12 -6 5 -1 16 5 22 19 22 11 0 20 7 20 15 0 8 2 15 5 15 3 0 5
-14 5 -32z m-1902 -28 c-15 -24 -22 -19 -13 9 3 12 11 19 16 16 5 -4 3 -14 -3
-25z m14 -111 c6 -4 8 -14 5 -24 -12 -30 -27 -5 -26 43 2 34 3 39 6 17 3 -16
10 -33 15 -36z m1053 30 c10 -15 -1 -23 -20 -15 -9 3 -13 10 -10 16 8 13 22
13 30 -1z m555 -99 c0 -5 -4 -10 -9 -10 -6 0 -13 5 -16 10 -3 6 1 10 9 10 9 0
16 -4 16 -10z m77 -26 c-3 -3 -12 -4 -19 -1 -8 3 -5 6 6 6 11 1 17 -2 13 -5z
m-82 -26 c16 -13 39 -32 51 -44 12 -11 35 -26 53 -33 17 -8 31 -17 31 -21 0
-7 73 -50 85 -50 2 0 6 10 8 23 2 12 5 1 6 -25 1 -44 3 -48 25 -48 14 0 38
-11 54 -25 17 -14 35 -25 42 -25 6 0 18 -6 26 -14 7 -8 32 -17 54 -21 31 -5
44 -13 51 -32 5 -13 9 -27 9 -30 0 -8 -94 8 -104 18 -6 5 -18 9 -27 9 -9 0
-22 7 -29 16 -8 8 -30 22 -49 30 -20 8 -40 20 -46 27 -5 7 -35 29 -65 49 -30
21 -71 53 -90 73 -22 23 -43 35 -61 35 -14 0 -32 7 -40 16 -11 13 -9 14 16 8
21 -5 27 -4 23 7 -6 18 -55 24 -74 8 -8 -6 -14 -21 -14 -33 0 -17 -2 -18 -10
-6 -6 9 -6 18 0 24 13 13 13 43 -1 48 -18 6 2 38 25 38 12 0 35 -10 51 -22z
m-1575 2 c0 -5 -4 -10 -10 -10 -5 0 -10 5 -10 10 0 6 5 10 10 10 6 0 10 -4 10
-10z m1050 -41 c0 -12 -7 -19 -19 -19 -28 0 -37 21 -16 36 22 16 35 10 35 -17z
m767 -16 c-3 -10 -5 -4 -5 12 0 17 2 24 5 18 2 -7 2 -21 0 -30z m149 18 c-4
-6 -14 -7 -23 -4 -15 6 -14 7 3 13 22 9 29 6 20 -9z m-1979 -23 c-3 -8 -6 -5
-6 6 -1 11 2 17 5 13 3 -3 4 -12 1 -19z m993 -24 c0 -19 -5 -34 -10 -34 -6 0
-9 17 -8 39 4 47 18 44 18 -5z m-1051 -94 c13 -82 20 -111 50 -214 13 -43 17
-74 12 -80 -6 -7 -2 -31 9 -64 l19 -52 -24 0 c-27 0 -34 8 -47 59 -35 138 -48
234 -47 351 1 133 8 133 28 0z m104 50 c3 -14 1 -20 -6 -17 -7 2 -14 14 -15
26 -4 28 13 20 21 -9z m1052 -22 c-3 -49 -34 -143 -35 -108 0 13 -1 13 -10 0
-8 -11 -9 -8 -4 11 3 15 1 30 -5 33 -6 4 -10 24 -10 44 2 34 2 34 6 7 7 -44
20 -51 28 -15 5 23 3 35 -6 41 -10 6 -8 9 9 9 13 0 22 6 22 15 0 8 2 15 4 15
2 0 3 -24 1 -52z m862 -45 c-3 -10 -5 -4 -5 12 0 17 2 24 5 18 2 -7 2 -21 0
-30z m-3407 17 c0 -5 -4 -10 -10 -10 -5 0 -10 5 -10 10 0 6 5 10 10 10 6 0 10
-4 10 -10z m1457 -47 c-3 -10 -5 -4 -5 12 0 17 2 24 5 18 2 -7 2 -21 0 -30z
m-1647 17 c0 -5 -4 -10 -10 -10 -5 0 -10 5 -10 10 0 6 5 10 10 10 6 0 10 -4
10 -10z m-380 -26 c0 -8 -4 -12 -10 -9 -5 3 -10 10 -10 16 0 5 5 9 10 9 6 0
10 -7 10 -16z m3648 -56 c50 -52 69 -68 79 -68 12 -1 73 -59 73 -70 0 -5 3 -9
8 -8 15 4 71 -33 77 -52 4 -11 10 -18 15 -15 5 3 12 1 15 -5 9 -15 112 -60
139 -61 26 -1 107 -37 85 -38 -35 -2 -135 22 -150 35 -9 8 -27 17 -40 19 -13
3 -25 9 -27 15 -2 5 -20 17 -39 27 -20 9 -38 25 -41 35 -2 11 -14 18 -28 18
-14 0 -24 6 -24 14 0 8 -12 17 -27 21 -15 3 -33 15 -41 26 -7 10 -22 19 -32
19 -11 0 -25 10 -31 23 -7 12 -28 41 -47 65 -23 28 -29 42 -20 42 8 0 33 -19
56 -42z m169 0 c-3 -7 -5 -2 -5 12 0 14 2 19 5 13 2 -7 2 -19 0 -25z m-737
-17 c0 -27 -20 -42 -42 -30 -23 12 -23 35 -1 47 22 13 43 4 43 -17z m-440 -27
c0 -8 -4 -12 -10 -9 -5 3 -10 13 -10 21 0 8 5 12 10 9 6 -3 10 -13 10 -21z
m-746 -53 c-8 -29 -20 -51 -26 -49 -6 2 -34 -19 -62 -47 l-51 -50 35 -6 35 -6
-42 -2 c-37 -1 -43 -4 -43 -22 0 -11 -9 -33 -21 -47 l-21 -27 7 28 c9 34 -12
37 -25 3 -16 -42 -34 -44 -27 -2 7 42 6 42 -66 -16 -26 -21 -32 -39 -36 -100
0 -10 -5 -18 -11 -18 -5 0 -7 13 -3 31 l6 31 -59 -31 c-32 -17 -67 -31 -77
-31 -12 0 -20 -10 -24 -31 -4 -22 -15 -35 -37 -46 -17 -7 -46 -24 -65 -35 -28
-18 -33 -19 -29 -6 8 21 -23 30 -45 13 -25 -18 -21 -33 8 -27 38 7 30 -4 -28
-41 -29 -19 -71 -50 -92 -68 -21 -19 -36 -27 -31 -19 4 8 -1 5 -10 -7 -9 -13
-25 -23 -36 -23 -27 0 -19 52 10 65 12 5 22 18 22 27 0 10 5 18 10 18 18 0 11
28 -9 35 -16 5 -15 9 13 38 17 18 43 38 59 45 15 6 27 16 27 22 0 5 9 10 19
10 10 0 61 22 112 49 145 75 206 106 312 156 76 35 102 53 117 78 11 18 34 45
52 59 18 15 44 36 57 47 13 12 32 21 42 21 11 0 24 9 31 20 19 30 19 18 2 -39z
m2082 25 c3 -14 4 -33 2 -43 -2 -11 -8 -2 -15 25 -6 23 -7 42 -2 42 5 0 11
-11 15 -24z m214 -27 c0 -5 -4 -9 -10 -9 -5 0 -10 7 -10 16 0 8 5 12 10 9 6
-3 10 -10 10 -16z m-3670 -4 c0 -8 -7 -15 -15 -15 -16 0 -20 12 -8 23 11 12
23 8 23 -8z m2132 -40 c3 -14 1 -25 -3 -25 -5 0 -9 11 -9 25 0 14 2 25 4 25 2
0 6 -11 8 -25z m986 -37 c16 -16 15 -28 -3 -28 -8 0 -19 9 -25 20 -8 15 -8 20
3 20 7 0 18 -5 25 -12z m-1438 -31 c0 -18 -2 -19 -10 -7 -13 20 -13 43 0 35 6
-3 10 -16 10 -28z m467 -9 c-3 -8 -6 -5 -6 6 -1 11 2 17 5 13 3 -3 4 -12 1
-19z m633 12 c0 -5 -2 -10 -4 -10 -3 0 -8 5 -11 10 -3 6 -1 10 4 10 6 0 11 -4
11 -10z m655 1 c7 -12 -12 -24 -25 -16 -11 7 -4 25 10 25 5 0 11 -4 15 -9z
m-445 -15 c0 -3 -4 -8 -10 -11 -5 -3 -10 -1 -10 4 0 6 5 11 10 11 6 0 10 -2
10 -4z m259 -49 c17 4 20 0 19 -26 -1 -29 -2 -30 -15 -11 -8 11 -20 17 -28 14
-8 -4 -15 -1 -15 5 0 6 -9 11 -20 11 -16 0 -20 7 -20 33 l0 32 30 -32 c20 -21
36 -30 49 -26z m-3509 12 c0 -5 -7 -9 -15 -9 -15 0 -20 12 -9 23 8 8 24 -1 24
-14z m1990 -4 c0 -8 -2 -15 -4 -15 -2 0 -6 7 -10 15 -3 8 -1 15 4 15 6 0 10
-7 10 -15z m1187 -7 c-3 -8 -6 -5 -6 6 -1 11 2 17 5 13 3 -3 4 -12 1 -19z
m-1369 -60 c5 -7 13 -38 16 -68 l7 -55 -20 25 c-12 14 -24 36 -27 50 -4 14
-11 30 -16 37 -6 7 -4 13 4 16 21 8 25 8 36 -5z m1353 -15 c-12 -20 -14 -14
-5 12 4 9 9 14 11 11 3 -2 0 -13 -6 -23z m219 -24 c0 -6 -4 -7 -10 -4 -5 3
-10 11 -10 16 0 6 5 7 10 4 6 -3 10 -11 10 -16z m-148 -59 c22 -36 20 -35 -22
14 -14 16 -19 27 -12 25 7 -3 23 -20 34 -39z m221 12 c9 -8 17 -21 17 -29 0
-7 6 -13 13 -13 6 0 4 -5 -6 -11 -27 -16 -54 -2 -61 31 -9 48 -26 34 -26 -22
0 -28 -3 -48 -7 -45 -7 8 -5 95 3 109 7 11 43 1 67 -20z m-2219 -47 c-27 -20
-51 -20 -34 0 7 8 22 15 33 15 20 0 20 0 1 -15z m2526 -25 c19 -11 29 -19 22
-20 -14 0 -72 28 -72 35 0 9 15 4 50 -15z m-236 -6 c9 -25 2 -26 -17 -4 -13
16 -14 20 -3 20 8 0 17 -7 20 -16z m-2344 -4 c0 -5 -4 -10 -10 -10 -5 0 -10 5
-10 10 0 6 5 10 10 10 6 0 10 -4 10 -10z m2120 -18 c0 -15 -2 -15 -10 -2 -13
20 -13 33 0 25 6 -3 10 -14 10 -23z m4475 -22 c3 -5 -1 -10 -9 -10 -9 0 -16 5
-16 10 0 6 4 10 9 10 6 0 13 -4 16 -10z m-6670 -40 c-10 -11 -22 -20 -27 -20
-5 0 -4 9 2 20 6 11 18 20 27 20 14 0 14 -2 -2 -20z m2495 5 c7 -8 8 -15 2
-15 -5 0 -15 7 -22 15 -7 8 -8 15 -2 15 5 0 15 -7 22 -15z m-2376 -20 c-4 -8
-16 -15 -27 -15 -20 0 -20 0 -1 15 25 19 35 19 28 0z m2443 -32 c7 -15 11 -28
10 -30 -7 -6 -47 29 -47 43 0 24 24 16 37 -13z m-3145 -64 c-33 -50 -47 -116
-44 -209 3 -87 -14 -160 -38 -160 -10 0 -23 -7 -30 -14 -6 -8 -33 -22 -58 -32
-50 -17 -62 -22 -133 -53 -25 -11 -69 -29 -98 -41 l-53 -21 7 38 c4 21 8 40
10 42 7 6 25 -11 20 -19 -3 -5 -1 -11 4 -14 12 -8 61 32 61 49 0 8 18 33 40
57 22 24 40 46 40 49 0 9 49 27 80 31 17 2 24 8 22 20 -1 9 2 19 8 23 14 9 12
25 -3 25 -7 0 -31 -8 -52 -19 -20 -10 -51 -17 -66 -15 -27 3 -29 1 -23 -21 7
-27 -12 -35 -32 -15 -17 17 -60 -5 -75 -39 -15 -34 -34 -42 -26 -12 6 26 -6
43 -27 35 -34 -13 -59 -90 -70 -214 -3 -27 -8 -35 -22 -33 -11 2 -29 -2 -41
-9 -12 -6 -33 -8 -47 -6 -15 3 -31 0 -37 -8 -6 -8 -17 -14 -24 -14 -8 0 -15
-6 -17 -12 -3 -8 -14 -3 -30 14 -19 21 -27 25 -36 16 -17 -17 -15 -28 4 -28 8
0 12 -5 9 -10 -4 -6 -12 -7 -18 -3 -7 4 -23 6 -37 4 l-25 -3 26 29 c51 57 53
62 26 60 -25 -2 -67 -40 -67 -61 0 -7 -3 -7 -8 -1 -12 17 -62 17 -78 0 -9 -9
-29 -19 -45 -22 -18 -3 -29 -13 -32 -27 -2 -11 -5 -3 -6 19 -1 36 4 46 42 82
23 22 56 47 72 55 123 62 328 159 368 174 36 14 52 27 62 50 15 37 51 64 125
94 102 41 185 82 228 111 24 16 62 39 85 50 23 12 50 30 61 41 30 32 29 13 -2
-33z m7083 25 c26 -28 31 -49 15 -59 -5 -3 -10 -15 -10 -26 0 -10 -7 -19 -15
-19 -9 0 -15 9 -15 23 0 12 -9 41 -20 65 -19 42 -19 42 1 42 11 0 31 -12 44
-26z m-6605 2 c0 -8 -4 -17 -9 -21 -12 -7 -24 12 -16 25 9 15 25 12 25 -4z
m-40 -14 c0 -11 -39 -47 -44 -41 -9 9 15 49 29 49 8 0 15 -4 15 -8z m2780 -2
c13 -8 13 -10 -2 -10 -9 0 -20 5 -23 10 -8 13 5 13 25 0z m-2872 -52 c-2 -6
-10 -14 -16 -16 -7 -2 -10 2 -6 12 7 18 28 22 22 4z m1362 -49 c0 -5 -4 -9
-10 -9 -5 0 -10 7 -10 16 0 8 5 12 10 9 6 -3 10 -10 10 -16z m-1421 -1 c-1
-29 -14 -47 -27 -39 -12 7 -12 12 -1 30 15 23 29 28 28 9z m-49 -42 c0 -2 -7
-7 -16 -10 -8 -3 -12 -2 -9 4 6 10 25 14 25 6z m-660 -280 c0 -3 -4 -8 -10
-11 -5 -3 -10 -1 -10 4 0 6 5 11 10 11 6 0 10 -2 10 -4z m391 -23 c11 -30 -1
-43 -41 -42 -24 0 -24 1 -4 9 24 10 41 30 25 30 -6 0 -8 7 -5 15 8 21 13 19
25 -12z m139 12 c-7 -8 -16 -15 -21 -15 -5 0 -9 7 -9 15 0 9 9 15 21 15 18 0
19 -2 9 -15z m8058 -72 c50 -37 60 -52 68 -93 4 -19 13 -43 21 -52 8 -9 13
-25 11 -35 -2 -14 -8 -9 -25 20 -12 20 -27 37 -33 37 -5 0 -10 7 -10 15 0 14
-82 72 -147 103 -18 9 -33 19 -33 24 0 4 25 8 56 8 45 0 62 -5 92 -27z m-9281
-31 c-15 -16 -27 -35 -27 -43 0 -8 -9 -25 -21 -37 -11 -13 -26 -37 -34 -56 -8
-18 -21 -38 -29 -46 -22 -17 -20 -37 4 -43 21 -5 28 -37 8 -37 -6 0 -22 -10
-35 -22 -27 -25 -44 -17 -20 10 18 20 22 49 8 71 -7 11 -13 10 -35 -4 -14 -10
-26 -24 -26 -31 0 -8 -5 -14 -10 -14 -6 0 -23 -13 -38 -28 -35 -36 -62 -38
-56 -5 2 13 0 23 -6 23 -5 0 -10 -11 -10 -24 0 -19 -5 -24 -24 -22 -13 0 -22
4 -19 9 2 4 -2 7 -10 7 -19 0 -89 -78 -82 -90 4 -6 13 -10 21 -10 8 0 14 -5
14 -11 0 -5 -4 -7 -10 -4 -5 3 -8 0 -5 -7 3 -8 -13 -21 -44 -36 -61 -27 -60
-27 -56 4 1 16 27 50 66 91 54 54 60 62 34 53 -16 -6 -38 -9 -50 -6 -14 4 -33
-7 -65 -37 -25 -23 -56 -43 -70 -44 -65 -8 -73 -7 -77 3 -5 14 60 44 95 44 18
0 37 10 53 28 35 38 83 114 84 132 0 10 8 14 24 12 13 -1 42 9 65 22 23 13 77
36 121 51 73 25 155 64 244 115 45 25 52 17 18 -18z m502 -171 c17 -11 7 -41
-14 -41 -8 0 -15 -7 -15 -15 0 -8 -7 -15 -15 -15 -17 0 -20 32 -5 61 12 21 27
24 49 10z m8901 -22 c0 -6 -4 -7 -10 -4 -5 3 -10 11 -10 16 0 6 5 7 10 4 6 -3
10 -11 10 -16z m-7023 -91 c-3 -7 -5 -2 -5 12 0 14 2 19 5 13 2 -7 2 -19 0
-25z m-2573 4 c21 -34 -39 -79 -89 -66 -17 4 -30 2 -35 -5 -5 -9 -9 -6 -13 9
-5 19 -2 21 29 18 23 -2 38 3 44 12 9 13 11 13 20 0 8 -12 10 -11 10 6 0 30
21 46 34 26z m206 -90 c0 -14 -27 -34 -33 -25 -3 4 -3 20 0 35 4 23 7 25 19
13 8 -7 14 -18 14 -23z m-133 -8 c-3 -3 -12 -4 -19 -1 -8 3 -5 6 6 6 11 1 17
-2 13 -5z m-47 -54 c-8 -5 -22 -9 -30 -9 -10 0 -8 3 5 9 27 12 43 12 25 0z
m1767 -12 c-3 -8 -6 -5 -6 6 -1 11 2 17 5 13 3 -3 4 -12 1 -19z m-1827 -12 c0
-2 -11 -6 -25 -8 -13 -3 -22 -1 -19 3 5 9 44 13 44 5z m-153 -60 c-2 -6 -15
-11 -28 -12 -13 0 -50 -13 -82 -28 -65 -31 -81 -31 -36 -1 16 12 27 26 24 34
-4 10 1 12 21 7 14 -4 23 -3 20 2 -3 5 15 9 40 9 27 0 43 -4 41 -11z m203 -34
c0 -13 -12 -22 -22 -16 -10 6 -1 24 13 24 5 0 9 -4 9 -8z m-465 -22 c8 -14
-13 -40 -32 -40 -7 0 -16 7 -20 16 -10 26 38 47 52 24z m3090 0 c3 -5 2 -10
-4 -10 -5 0 -13 5 -16 10 -3 6 -2 10 4 10 5 0 13 -4 16 -10z m-2804 -30 c-8
-4 -21 -5 -30 -2 -12 5 -10 8 9 12 29 8 40 3 21 -10z m2769 -15 c0 -8 -4 -15
-10 -15 -5 0 -7 7 -4 15 4 8 8 15 10 15 2 0 4 -7 4 -15z m836 -65 c-3 -19 -2
-29 4 -25 6 3 10 -4 10 -17 0 -17 -3 -19 -9 -9 -7 11 -9 11 -14 0 -3 -8 -6 0
-6 18 -1 32 7 63 16 63 3 0 3 -14 -1 -30z m-2711 -106 c3 -27 10 -80 15 -117
7 -43 7 -74 1 -85 -16 -29 -28 23 -25 111 1 42 -2 77 -7 77 -10 0 -12 53 -2
63 10 11 13 4 18 -49z m1940 15 c11 -17 -1 -21 -15 -4 -8 9 -8 15 -2 15 6 0
14 -5 17 -11z m-1158 -99 c-11 -19 -25 -45 -31 -57 -12 -24 -40 -31 -51 -12
-4 6 2 13 14 16 15 4 21 13 21 32 0 14 12 44 27 66 27 40 27 40 34 15 4 -17 0
-37 -14 -60z m1099 48 c-3 -13 -5 -30 -6 -38 -1 -9 -5 -6 -10 8 -5 12 -15 22
-22 22 -12 0 21 29 34 30 5 0 6 -10 4 -22z m71 -20 c-3 -8 -6 -5 -6 6 -1 11 2
17 5 13 3 -3 4 -12 1 -19z m-130 -55 c-3 -10 -5 -4 -5 12 0 17 2 24 5 18 2 -7
2 -21 0 -30z m-1137 -12 c0 -10 -109 -46 -116 -38 -9 8 64 39 109 46 4 0 7 -3
7 -8z m-157 -58 c-7 -2 -19 -2 -25 0 -7 3 -2 5 12 5 14 0 19 -2 13 -5z m2197
-83 c0 -5 -7 -10 -15 -10 -8 0 -15 5 -15 10 0 6 7 10 15 10 8 0 15 -4 15 -10z
m-1535 -141 c0 -38 -3 -69 -6 -69 -11 0 -19 30 -19 71 0 21 -4 39 -10 39 -5 0
-2 8 8 18 9 10 19 17 22 14 3 -2 5 -35 5 -73z m-2335 61 c0 -5 -4 -10 -10 -10
-5 0 -10 5 -10 10 0 6 5 10 10 10 6 0 10 -4 10 -10z m1151 -67 c-8 -15 -10
-15 -11 -2 0 17 10 32 18 25 2 -3 -1 -13 -7 -23z m3472 7 c7 -1 30 -17 52 -36
42 -37 23 -36 -35 3 -19 13 -40 23 -47 23 -7 0 -13 5 -13 11 0 6 7 8 16 5 9
-3 21 -6 27 -6z m-756 -22 c-3 -8 -6 -5 -6 6 -1 11 2 17 5 13 3 -3 4 -12 1
-19z m-3131 -36 c19 2 34 3 34 1 0 -1 -23 -39 -51 -83 -44 -70 -54 -80 -73
-74 -29 10 -97 7 -131 -6 -46 -17 -40 -3 7 17 63 29 96 35 118 23 11 -6 20 -9
20 -6 0 2 3 11 6 20 5 13 -3 16 -52 16 l-59 0 39 20 c26 15 42 18 50 11 8 -7
16 -4 25 11 8 13 9 23 3 27 -5 3 -13 21 -17 39 l-7 33 27 -27 c21 -20 33 -25
61 -22z m2911 -24 c-2 -13 -4 -5 -4 17 -1 22 1 32 4 23 2 -10 2 -28 0 -40z
m218 3 c-10 -34 -25 -24 -25 16 0 34 1 36 16 21 10 -10 14 -23 9 -37z m1005
-141 c0 -18 -8 -12 -41 30 -22 28 -43 49 -46 46 -3 -3 -12 2 -19 12 -8 10 -9
19 -3 23 16 9 109 -86 109 -111z m-4340 56 c-14 -7 -38 -16 -55 -19 -29 -6
-29 -6 -5 4 14 6 32 15 40 19 8 5 22 9 30 9 8 0 4 -6 -10 -13z m367 -68 c-3
-8 -6 -5 -6 6 -1 11 2 17 5 13 3 -3 4 -12 1 -19z m712 -20 c-1 -24 -3 -27 -6
-10 -2 12 -10 22 -16 22 -7 0 -6 4 3 10 21 13 20 14 19 -22z m108 0 c-3 -7 -5
-2 -5 12 0 14 2 19 5 13 2 -7 2 -19 0 -25z m-1276 7 c-18 -8 -38 -15 -45 -15
-19 1 38 29 59 29 14 0 10 -4 -14 -14z m3216 -52 c-3 -10 -5 -4 -5 12 0 17 2
24 5 18 2 -7 2 -21 0 -30z m-2747 17 c0 -5 -5 -10 -11 -10 -5 0 -7 5 -4 10 3
6 8 10 11 10 2 0 4 -4 4 -10z m227 -117 c-3 -10 -5 -2 -5 17 0 19 2 27 5 18 2
-10 2 -26 0 -35z m3658 27 c3 -5 -1 -10 -9 -10 -9 0 -16 5 -16 10 0 6 4 10 9
10 6 0 13 -4 16 -10z m-1128 -47 c-3 -10 -5 -4 -5 12 0 17 2 24 5 18 2 -7 2
-21 0 -30z m-1293 12 c-4 -8 -8 -15 -10 -15 -2 0 -4 7 -4 15 0 8 4 15 10 15 5
0 7 -7 4 -15z m55 -32 c-1 -53 -6 -49 -11 10 -2 20 0 37 4 37 4 0 8 -21 7 -47z
m1238 -25 c-3 -8 -6 -5 -6 6 -1 11 2 17 5 13 3 -3 4 -12 1 -19z m-1272 -28
c19 -8 19 -9 -2 -9 -12 -1 -25 4 -28 9 -7 12 2 12 30 0z m-357 -285 c0 -25 -4
-43 -9 -39 -5 3 -9 25 -9 50 0 25 4 43 8 40 5 -3 9 -26 10 -51z m1002 20 c0
-8 -7 -15 -15 -15 -8 0 -15 7 -15 15 0 8 7 15 15 15 8 0 15 -7 15 -15z m-760
-180 c0 -8 -4 -15 -10 -15 -5 0 -10 7 -10 15 0 8 5 15 10 15 6 0 10 -7 10 -15z
m2286 -231 c45 -26 70 -50 37 -36 -71 32 -92 43 -98 52 -11 18 15 11 61 -16z
m-1112 -30 c9 -8 16 -25 16 -36 0 -19 -1 -19 -25 3 -25 24 -33 49 -16 49 5 0
17 -7 25 -16z m-849 -24 c-3 -5 -10 -10 -16 -10 -5 0 -9 5 -9 10 0 6 7 10 16
10 8 0 12 -4 9 -10z m870 -100 c9 -16 12 -30 9 -30 -13 0 -44 33 -44 47 0 23
19 14 35 -17z m2105 2 c0 -11 -92 -103 -98 -97 -2 2 18 26 45 53 56 57 53 54
53 44z m-4640 -105 c0 -8 -3 -17 -7 -20 -9 -9 -34 13 -27 24 8 14 34 11 34 -4z
m2685 -57 c3 -5 1 -10 -4 -10 -6 0 -11 5 -11 10 0 6 2 10 4 10 3 0 8 -4 11
-10z m35 -67 c0 -20 -16 -8 -23 17 -4 17 -3 19 9 9 8 -6 14 -18 14 -26z m-602
4 c2 -10 -3 -17 -12 -17 -18 0 -29 16 -21 31 9 14 29 6 33 -14z m1680 -9 c3
-13 -3 -18 -22 -18 -20 0 -26 5 -26 21 0 15 5 20 22 17 13 -2 24 -11 26 -20z
m-1551 -70 c-3 -8 -6 -5 -6 6 -1 11 2 17 5 13 3 -3 4 -12 1 -19z m-1971 -99
c8 -14 -11 -33 -25 -25 -11 7 -4 36 9 36 5 0 12 -5 16 -11z m3982 -76 c-10 -2
-26 -2 -35 0 -10 3 -2 5 17 5 19 0 27 -2 18 -5z m-2728 -27 c0 -8 -4 -18 -10
-21 -5 -3 -10 3 -10 14 0 12 5 21 10 21 6 0 10 -6 10 -14z m457 -18 c-3 -7 -5
-2 -5 12 0 14 2 19 5 13 2 -7 2 -19 0 -25z m2187 18 c-10 -8 -21 -12 -24 -10
-5 6 21 24 34 24 6 0 1 -6 -10 -14z m-2569 -56 c3 -5 2 -10 -4 -10 -5 0 -13 5
-16 10 -3 6 -2 10 4 10 5 0 13 -4 16 -10z m387 -62 c-5 -5 -8 6 -6 29 3 51 6
55 11 14 3 -18 0 -38 -5 -43z m-469 17 c-3 -9 -8 -14 -10 -11 -3 3 -2 9 2 15
9 16 15 13 8 -4z m1997 -25 c0 -5 -5 -10 -11 -10 -5 0 -7 5 -4 10 3 6 8 10 11
10 2 0 4 -4 4 -10z m-1743 -66 c-9 -9 -28 6 -21 18 4 6 10 6 17 -1 6 -6 8 -13
4 -17z m53 -94 c0 -5 -4 -10 -10 -10 -5 0 -10 5 -10 10 0 6 5 10 10 10 6 0 10
-4 10 -10z m4295 -20 c3 -5 -1 -10 -10 -10 -9 0 -13 5 -10 10 3 6 8 10 10 10
2 0 7 -4 10 -10z m215 -165 c0 -8 -4 -15 -9 -15 -13 0 -22 16 -14 24 11 11 23
6 23 -9z m-4670 -280 c0 -8 -4 -15 -9 -15 -13 0 -22 16 -14 24 11 11 23 6 23
-9z"/>
<path d="M4992 10540 c-7 -11 -17 -20 -23 -20 -6 0 -16 -6 -23 -13 -11 -11
-11 -16 -1 -31 13 -17 14 -17 35 4 11 11 25 18 30 15 5 -3 14 3 19 14 14 24
14 34 2 26 -6 -3 -14 1 -18 10 -7 12 -10 11 -21 -5z"/>
<path d="M5051 10517 c-15 -39 -14 -45 5 -19 8 12 13 28 11 35 -3 6 -10 -1
-16 -16z"/>
<path d="M4991 10476 c-8 -9 -11 -19 -7 -23 9 -9 29 13 24 27 -2 8 -8 7 -17
-4z"/>
<path d="M5005 10430 c-15 -29 -15 -30 2 -19 10 6 19 20 19 30 0 26 -3 24 -21
-11z"/>
<path d="M5040 10439 c0 -5 5 -7 10 -4 6 3 10 8 10 11 0 2 -4 4 -10 4 -5 0
-10 -5 -10 -11z"/>
<path d="M4767 10413 c-4 -3 -7 -11 -7 -17 0 -6 5 -5 12 2 6 6 9 14 7 17 -3 3
-9 2 -12 -2z"/>
<path d="M4775 10360 c-10 -11 -15 -23 -12 -27 4 -3 7 -1 7 5 0 6 9 14 20 17
11 3 20 11 20 16 0 15 -16 10 -35 -11z"/>
<path d="M5125 10260 c-3 -5 1 -10 10 -10 12 0 15 -6 10 -22 -5 -20 -5 -21 5
-5 12 19 7 47 -9 47 -5 0 -13 -4 -16 -10z"/>
<path d="M4675 10230 c-3 -5 -2 -10 4 -10 5 0 13 5 16 10 3 6 2 10 -4 10 -5 0
-13 -4 -16 -10z"/>
<path d="M4566 10193 c-6 -14 -5 -15 5 -6 7 7 10 15 7 18 -3 3 -9 -2 -12 -12z"/>
<path d="M4760 10200 c-8 -5 -12 -12 -9 -15 4 -3 12 1 19 10 14 17 11 19 -10
5z"/>
<path d="M4630 10169 c0 -5 5 -7 10 -4 6 3 10 8 10 11 0 2 -4 4 -10 4 -5 0
-10 -5 -10 -11z"/>
<path d="M5414 10140 c1 -28 16 -32 16 -4 0 8 3 13 8 13 4 -1 13 -1 20 0 23 2
4 19 -21 19 -20 0 -24 -5 -23 -28z"/>
<path d="M4387 10115 c-33 -29 -31 -31 12 -9 17 8 29 20 26 25 -8 11 -5 13
-38 -16z"/>
<path d="M4416 10056 c-25 -22 -35 -36 -27 -40 6 -4 10 -4 9 1 -2 5 13 23 32
41 46 42 36 40 -14 -2z"/>
<path d="M5392 10070 c0 -14 2 -19 5 -12 2 6 2 18 0 25 -3 6 -5 1 -5 -13z"/>
<path d="M4418 10017 c-43 -42 -91 -82 -84 -69 5 8 1 11 -13 9 -11 -2 -23 -6
-27 -10 -11 -10 -13 -57 -3 -57 11 0 167 149 157 150 -4 0 -17 -10 -30 -23z"/>
<path d="M4372 9948 c-19 -19 -14 -29 8 -16 20 13 27 28 12 28 -4 0 -13 -5
-20 -12z"/>
<path d="M5134 9948 c-3 -4 4 -8 14 -8 11 0 22 -7 26 -15 3 -8 10 -15 16 -15
11 0 14 40 3 41 -5 0 -18 2 -31 3 -13 2 -25 -1 -28 -6z"/>
<path d="M5480 9920 c0 -5 5 -10 11 -10 5 0 7 5 4 10 -3 6 -8 10 -11 10 -2 0
-4 -4 -4 -10z"/>
<path d="M4237 9890 c-3 -11 -1 -20 4 -20 4 0 5 -8 2 -17 -5 -12 -1 -11 15 5
24 24 29 37 10 26 -9 -5 -9 -2 1 9 12 15 11 17 -7 17 -11 0 -22 -8 -25 -20z"/>
<path d="M4189 9884 c-10 -13 -10 -17 2 -25 15 -9 31 -8 30 4 -1 4 -1 14 -1
22 0 19 -14 19 -31 -1z"/>
<path d="M5210 9879 c0 -5 5 -7 10 -4 6 3 10 8 10 11 0 2 -4 4 -10 4 -5 0 -10
-5 -10 -11z"/>
<path d="M5165 9841 c-3 -5 -1 -12 5 -16 5 -3 10 1 10 9 0 18 -6 21 -15 7z"/>
<path d="M5367 9843 c-13 -12 -7 -53 7 -53 17 0 28 24 20 45 -7 16 -17 19 -27
8z"/>
<path d="M4249 9821 c-13 -11 -19 -20 -14 -20 14 0 50 28 43 34 -3 3 -16 -3
-29 -14z"/>
<path d="M5321 9784 c-1 -17 -8 -37 -16 -44 -8 -7 -15 -23 -15 -36 0 -15 6
-24 15 -24 13 0 20 19 16 43 -1 4 3 16 7 25 5 9 6 28 1 42 -7 24 -7 24 -8 -6z"/>
<path d="M4086 9625 c4 -8 8 -15 10 -15 2 0 4 7 4 15 0 8 -4 15 -10 15 -5 0
-7 -7 -4 -15z"/>
<path d="M5178 9633 c7 -3 16 -2 19 1 4 3 -2 6 -13 5 -11 0 -14 -3 -6 -6z"/>
<path d="M4114 9585 c-16 -14 -24 -25 -19 -25 13 0 26 10 44 33 19 24 9 21
-25 -8z"/>
<path d="M4064 9365 c-17 -13 -17 -14 -2 -15 9 0 20 5 23 11 11 17 0 20 -21 4z"/>
<path d="M4105 9361 c-3 -5 -1 -12 5 -16 5 -3 10 1 10 9 0 18 -6 21 -15 7z"/>
<path d="M5045 9350 c-3 -5 -2 -10 4 -10 5 0 13 5 16 10 3 6 2 10 -4 10 -5 0
-13 -4 -16 -10z"/>
<path d="M5085 9339 c-4 -6 -5 -13 -2 -16 7 -7 27 6 27 18 0 12 -17 12 -25 -2z"/>
<path d="M5040 9295 c-7 -9 -11 -18 -8 -20 3 -3 11 1 18 10 7 9 11 18 8 20 -3
3 -11 -1 -18 -10z"/>
<path d="M4051 9265 c-19 -20 -20 -25 -7 -25 20 0 66 29 66 41 0 18 -36 8 -59
-16z"/>
<path d="M4103 9223 c-11 -16 -18 -34 -16 -41 4 -10 53 49 53 63 0 13 -19 2
-37 -22z"/>
<path d="M4004 9210 c-23 -9 -42 -30 -27 -30 4 0 19 9 33 20 27 21 26 23 -6
10z"/>
<path d="M4050 9210 c-8 -5 -12 -11 -9 -14 2 -3 11 -1 19 4 8 5 12 11 9 14 -2
3 -11 1 -19 -4z"/>
<path d="M4887 9213 c-4 -3 -7 -11 -7 -17 0 -6 5 -5 12 2 6 6 9 14 7 17 -3 3
-9 2 -12 -2z"/>
<path d="M3660 9197 c0 -1 -4 -16 -9 -34 -7 -23 -6 -35 3 -42 9 -8 13 0 15 34
1 25 -1 45 -4 45 -3 0 -5 -1 -5 -3z"/>
<path d="M3935 9190 c-3 -5 -1 -10 4 -10 6 0 11 5 11 10 0 6 -2 10 -4 10 -3 0
-8 -4 -11 -10z"/>
<path d="M4630 9171 c0 -20 17 -37 27 -28 7 8 -7 47 -18 47 -5 0 -9 -9 -9 -19z"/>
<path d="M4840 9169 c0 -5 5 -7 10 -4 6 3 10 8 10 11 0 2 -4 4 -10 4 -5 0 -10
-5 -10 -11z"/>
<path d="M4002 9120 c-7 -11 -10 -20 -6 -20 13 0 44 21 44 30 0 17 -25 11 -38
-10z"/>
<path d="M4085 9130 c-3 -5 -1 -10 4 -10 6 0 11 5 11 10 0 6 -2 10 -4 10 -3 0
-8 -4 -11 -10z"/>
<path d="M4940 9119 c0 -5 5 -7 10 -4 6 3 10 8 10 11 0 2 -4 4 -10 4 -5 0 -10
-5 -10 -11z"/>
<path d="M4022 9071 c4 -13 18 -16 19 -4 0 4 -5 9 -11 12 -7 2 -11 -2 -8 -8z"/>
<path d="M4230 9061 c0 -5 -9 -11 -20 -14 -21 -5 -27 -31 -10 -42 6 -3 10 1
10 9 0 9 7 16 15 16 8 0 15 9 15 20 0 11 -2 20 -5 20 -3 0 -5 -4 -5 -9z"/>
<path d="M3851 9017 c-22 -18 -40 -37 -40 -44 -1 -6 -7 -14 -13 -17 -7 -3 -2
-3 11 0 16 4 21 3 17 -5 -4 -6 0 -11 9 -11 13 0 15 -8 9 -52 l-7 -53 36 34
c19 18 34 38 31 45 -5 14 13 42 22 33 4 -3 1 -15 -7 -24 -13 -17 -12 -17 4 -4
10 8 25 27 33 43 8 15 20 27 27 25 7 -1 12 8 11 19 0 14 4 20 13 17 7 -3 13 0
13 5 0 19 -17 22 -31 6 -15 -18 -74 -50 -65 -35 4 6 3 11 -3 11 -5 0 -12 -4
-16 -10 -7 -11 -35 -2 -35 11 0 5 10 8 21 6 25 -2 37 18 15 26 -9 4 -32 -8
-55 -26z m52 -44 c-7 -2 -13 -11 -13 -19 0 -12 -9 -13 -50 -4 -14 2 37 30 54
29 12 0 15 -3 9 -6z"/>
<path d="M4945 9020 c-3 -5 -1 -10 4 -10 6 0 11 5 11 10 0 6 -2 10 -4 10 -3 0
-8 -4 -11 -10z"/>
<path d="M3990 8969 c-25 -28 -43 -56 -42 -63 2 -6 0 -8 -4 -3 -4 4 -29 -14
-56 -40 -45 -45 -60 -73 -38 -73 6 0 10 4 10 8 0 12 51 65 75 78 11 6 30 26
42 45 11 19 31 45 43 57 11 13 20 28 18 33 -2 6 -24 -13 -48 -42z"/>
<path d="M4235 8932 c2 -9 4 -20 4 -23 2 -16 31 -16 45 0 15 17 15 19 -1 32
-15 12 -16 12 -10 -3 3 -10 2 -18 -3 -18 -6 0 -10 4 -10 9 0 5 -6 11 -14 14
-9 4 -13 0 -11 -11z"/>
<path d="M3941 8858 c-21 -33 -24 -78 -6 -78 18 0 20 27 3 33 -10 3 -9 9 3 23
23 27 31 44 22 44 -5 0 -14 -10 -22 -22z"/>
<path d="M3977 8852 c-23 -25 -23 -64 0 -55 12 5 14 3 8 -7 -5 -8 -4 -11 2 -7
5 3 9 21 8 39 -1 18 3 36 9 40 8 6 8 8 0 8 -6 0 -18 -8 -27 -18z"/>
<path d="M4220 8855 c0 -8 4 -15 9 -15 5 0 11 7 15 15 3 9 0 15 -9 15 -8 0
-15 -7 -15 -15z"/>
<path d="M3747 8846 c-3 -8 -3 -17 1 -21 3 -3 5 -22 3 -42 -2 -26 1 -34 11
-31 7 3 12 16 10 29 -1 13 -3 36 -4 52 -1 29 -12 36 -21 13z"/>
<path d="M4214 8815 c-9 -22 1 -29 15 -11 8 10 9 16 1 21 -5 3 -13 -1 -16 -10z"/>
<path d="M4102 8778 c-16 -16 -15 -28 3 -28 8 0 15 9 15 20 0 23 -2 24 -18 8z"/>
<path d="M4020 8755 c-6 -8 -9 -19 -5 -25 4 -6 2 -16 -3 -23 -5 -7 -12 -27
-15 -44 -5 -25 -3 -33 7 -33 8 0 21 -3 30 -6 11 -4 16 -1 16 11 0 19 -25 47
-34 38 -15 -16 -4 17 14 40 13 16 16 28 10 32 -6 4 -8 11 -5 16 9 14 -1 11
-15 -6z"/>
<path d="M3778 8749 c-10 -5 -18 -14 -18 -19 0 -17 25 -11 38 10 13 22 7 25
-20 9z"/>
<path d="M3750 8594 c0 -21 4 -33 10 -29 6 3 10 19 10 36 0 16 -4 29 -10 29
-5 0 -10 -16 -10 -36z"/>
<path d="M4496 8604 c-4 -11 -2 -15 8 -11 7 3 18 1 24 -5 8 -8 9 -5 5 11 -6
25 -28 28 -37 5z"/>
<path d="M4230 8570 c0 -5 -7 -10 -15 -10 -8 0 -15 -4 -15 -10 0 -13 11 -12
33 4 19 15 22 26 7 26 -5 0 -10 -4 -10 -10z"/>
<path d="M3903 8543 c-29 -19 -30 -43 -2 -43 11 0 17 4 14 10 -3 5 -1 19 5 30
13 24 12 24 -17 3z"/>
<path d="M3839 8533 c-12 -16 -12 -17 2 -6 9 7 20 9 24 5 5 -4 5 -1 1 6 -9 16
-11 15 -27 -5z"/>
<path d="M4177 8523 c-12 -12 -7 -22 8 -17 8 4 15 10 15 15 0 11 -14 12 -23 2z"/>
<path d="M3790 8484 c0 -21 27 -47 35 -34 7 12 -12 50 -25 50 -6 0 -10 -7 -10
-16z"/>
<path d="M4158 8422 c-19 -4 -25 -32 -7 -32 5 0 7 6 4 13 -4 6 1 3 9 -7 19
-23 33 -14 20 12 -5 10 -17 16 -26 14z"/>
<path d="M3692 8315 c0 -16 2 -22 5 -12 2 9 2 23 0 30 -3 6 -5 -1 -5 -18z"/>
<path d="M3580 8256 c0 -22 26 -26 27 -5 1 11 -5 19 -13 19 -8 0 -14 -6 -14
-14z"/>
<path d="M3696 8210 c-10 -19 -21 -61 -24 -98 -4 -59 -3 -65 10 -52 17 17 42
125 36 159 -3 21 -4 21 -22 -9z"/>
<path d="M3572 7563 c-16 -30 -35 -184 -24 -195 13 -13 19 9 32 116 10 93 8
111 -8 79z"/>
<path d="M3535 7320 c-7 -12 2 -30 16 -30 12 0 12 27 0 35 -5 3 -12 1 -16 -5z"/>
<path d="M3526 7258 c-16 -52 -30 -238 -18 -238 12 0 18 16 28 75 4 22 10 45
14 50 3 6 6 24 5 40 -1 17 -3 42 -3 58 -2 27 -19 37 -26 15z"/>
<path d="M3610 7193 c0 -13 5 -23 10 -23 13 0 13 11 0 30 -8 12 -10 11 -10 -7z"/>
<path d="M3493 6704 c-1 -50 0 -54 12 -37 18 23 20 93 2 93 -9 0 -13 -17 -14
-56z"/>
<path d="M3540 6610 c0 -5 5 -10 10 -10 6 0 10 5 10 10 0 6 -4 10 -10 10 -5 0
-10 -4 -10 -10z"/>
<path d="M3520 6585 c0 -14 21 -45 31 -45 18 0 5 45 -13 48 -10 2 -18 1 -18
-3z"/>
<path d="M3492 6560 c0 -14 2 -19 5 -12 2 6 2 18 0 25 -3 6 -5 1 -5 -13z"/>
<path d="M3556 6313 c-11 -11 -6 -23 9 -23 8 0 15 4 15 9 0 13 -16 22 -24 14z"/>
<path d="M3490 6239 c0 -5 5 -7 10 -4 6 3 10 8 10 11 0 2 -4 4 -10 4 -5 0 -10
-5 -10 -11z"/>
<path d="M3560 6050 c0 -11 7 -20 15 -20 17 0 18 2 9 24 -9 23 -24 20 -24 -4z"/>
<path d="M3632 5460 c0 -14 2 -19 5 -12 2 6 2 18 0 25 -3 6 -5 1 -5 -13z"/>
<path d="M3640 5391 c0 -11 5 -23 10 -26 6 -3 10 1 10 9 0 9 0 19 1 23 0 4 -4
9 -10 11 -6 2 -11 -5 -11 -17z"/>
<path d="M4411 8451 c-9 -6 -10 -11 -2 -15 13 -8 31 1 31 15 0 11 -11 11 -29
0z"/>
<path d="M5317 7063 c-4 -3 -7 -11 -7 -17 0 -6 5 -5 12 2 6 6 9 14 7 17 -3 3
-9 2 -12 -2z"/>
<path d="M5358 6995 c-25 -34 -23 -54 3 -28 12 11 19 27 17 36 -2 12 -7 10
-20 -8z"/>
<path d="M5181 6974 c0 -11 3 -14 6 -6 3 7 2 16 -1 19 -3 4 -6 -2 -5 -13z"/>
<path d="M5135 6959 c-4 -6 -5 -13 -2 -16 7 -7 27 6 27 18 0 12 -17 12 -25 -2z"/>
<path d="M5130 6870 c0 -5 4 -10 9 -10 6 0 13 5 16 10 3 6 -1 10 -9 10 -9 0
-16 -4 -16 -10z"/>
<path d="M5177 6863 c-4 -3 -7 -12 -7 -20 0 -11 5 -11 20 -3 11 6 20 15 20 20
0 11 -23 13 -33 3z"/>
<path d="M4021 6831 c-10 -6 -11 -13 -3 -27 10 -18 11 -18 17 -2 10 25 3 39
-14 29z"/>
<path d="M4805 6885 c-3 -8 -7 -22 -10 -30 -2 -8 2 -15 9 -15 12 0 25 28 26
53 0 13 -21 7 -25 -8z"/>
<path d="M4965 6869 c-12 -18 3 -22 20 -5 14 14 14 16 1 16 -8 0 -18 -5 -21
-11z"/>
<path d="M4830 6848 c0 -15 10 -27 27 -35 15 -7 28 -11 30 -9 8 8 -10 36 -23
36 -8 0 -14 7 -14 15 0 8 -4 15 -10 15 -5 0 -10 -10 -10 -22z"/>
<path d="M4636 6695 c-3 -8 -1 -15 3 -15 5 0 11 7 15 15 3 8 1 15 -3 15 -5 0
-11 -7 -15 -15z"/>
<path d="M4575 6460 c-3 -5 -1 -10 4 -10 6 0 11 5 11 10 0 6 -2 10 -4 10 -3 0
-8 -4 -11 -10z"/>
<path d="M2396 4711 c-4 -7 -5 -15 -2 -18 9 -9 19 4 14 18 -4 11 -6 11 -12 0z"/>
<path d="M2319 4679 c-12 -8 -12 -10 0 -18 15 -10 41 -4 41 9 0 13 -26 19 -41
9z"/>
<path d="M2155 4650 c3 -5 12 -7 20 -3 21 7 19 13 -6 13 -11 0 -18 -4 -14 -10z"/>
<path d="M1735 4388 c-2 -7 -13 -40 -24 -72 -19 -55 -19 -62 -5 -77 9 -10 16
-34 17 -53 1 -38 6 -43 25 -24 7 7 8 17 1 30 -6 12 -6 18 1 18 6 0 10 36 10
95 0 59 -4 95 -10 95 -6 0 -12 -6 -15 -12z"/>
<path d="M1210 4120 c0 -5 5 -10 11 -10 5 0 7 5 4 10 -3 6 -8 10 -11 10 -2 0
-4 -4 -4 -10z"/>
<path d="M1140 4009 c-8 -11 -23 -21 -33 -23 -23 -3 -41 -22 -33 -35 12 -19
66 -12 92 13 23 21 24 26 13 45 -17 26 -20 26 -39 0z"/>
</g>
</svg>
